<svg width="60" height="60" viewBox="0 0 60 60" fill="none" xmlns="http://www.w3.org/2000/svg">
<path d="M0 30C0 13.4315 13.4315 0 30 0C46.5685 0 60 13.4315 60 30C60 46.5685 46.5685 60 30 60C13.4315 60 0 46.5685 0 30Z" fill="white"/>
<path d="M33.3337 37.5V35.8333C33.3337 34.9493 32.9825 34.1014 32.3573 33.4763C31.7322 32.8512 30.8844 32.5 30.0003 32.5H25.0003C24.1163 32.5 23.2684 32.8512 22.6433 33.4763C22.0182 34.1014 21.667 34.9493 21.667 35.8333V37.5" stroke="#2BA7A0" stroke-width="1.66667" stroke-linecap="round" stroke-linejoin="round"/>
<path d="M27.5003 29.1667C29.3413 29.1667 30.8337 27.6743 30.8337 25.8333C30.8337 23.9924 29.3413 22.5 27.5003 22.5C25.6594 22.5 24.167 23.9924 24.167 25.8333C24.167 27.6743 25.6594 29.1667 27.5003 29.1667Z" stroke="#2BA7A0" stroke-width="1.66667" stroke-linecap="round" stroke-linejoin="round"/>
<path d="M38.333 37.4999V35.8333C38.3325 35.0947 38.0866 34.3773 37.6341 33.7935C37.1817 33.2098 36.5481 32.7929 35.833 32.6083" stroke="#2BA7A0" stroke-width="1.66667" stroke-linecap="round" stroke-linejoin="round"/>
<path d="M33.333 22.6083C34.05 22.7919 34.6855 23.2089 35.1394 23.7935C35.5932 24.3782 35.8395 25.0973 35.8395 25.8374C35.8395 26.5776 35.5932 27.2967 35.1394 27.8814C34.6855 28.466 34.05 28.883 33.333 29.0666" stroke="#2BA7A0" stroke-width="1.66667" stroke-linecap="round" stroke-linejoin="round"/>
</svg>
