<svg width="80" height="80" viewBox="0 0 80 80" fill="none" xmlns="http://www.w3.org/2000/svg">
<circle cx="40" cy="40" r="40" fill="#EAF6F5"/>
<path d="M40 23.75C36.7861 23.75 33.6443 24.703 30.972 26.4886C28.2997 28.2742 26.2169 30.8121 24.987 33.7814C23.757 36.7507 23.4352 40.018 24.0622 43.1702C24.6893 46.3224 26.2369 49.2179 28.5095 51.4905C30.7821 53.7631 33.6776 55.3107 36.8298 55.9378C39.982 56.5648 43.2493 56.243 46.2186 55.013C49.1879 53.7831 51.7258 51.7003 53.5114 49.028C55.297 46.3557 56.25 43.2139 56.25 40C56.2455 35.6916 54.5319 31.561 51.4855 28.5145C48.439 25.4681 44.3084 23.7545 40 23.75ZM40 53.75C37.2805 53.75 34.6221 52.9436 32.3609 51.4327C30.0997 49.9218 28.3374 47.7744 27.2967 45.2619C26.256 42.7494 25.9837 39.9847 26.5142 37.3175C27.0448 34.6503 28.3543 32.2003 30.2773 30.2773C32.2003 28.3543 34.6503 27.0447 37.3175 26.5142C39.9848 25.9837 42.7494 26.256 45.2619 27.2967C47.7744 28.3374 49.9218 30.0997 51.4327 32.3609C52.9436 34.6221 53.75 37.2805 53.75 40C53.7459 43.6455 52.2959 47.1404 49.7182 49.7182C47.1404 52.2959 43.6455 53.7459 40 53.75ZM42.5 38.125C42.5 38.4958 42.39 38.8584 42.184 39.1667C41.978 39.475 41.6851 39.7154 41.3425 39.8573C40.9999 39.9992 40.6229 40.0363 40.2592 39.964C39.8955 39.8916 39.5614 39.713 39.2992 39.4508C39.037 39.1886 38.8584 38.8545 38.786 38.4908C38.7137 38.1271 38.7508 37.7501 38.8927 37.4075C39.0346 37.0649 39.275 36.772 39.5833 36.566C39.8917 36.36 40.2542 36.25 40.625 36.25C41.1223 36.25 41.5992 36.4475 41.9508 36.7992C42.3025 37.1508 42.5 37.6277 42.5 38.125ZM45.625 36.25C45.2542 36.25 44.8917 36.14 44.5833 35.934C44.275 35.728 44.0346 35.4351 43.8927 35.0925C43.7508 34.7499 43.7137 34.3729 43.786 34.0092C43.8584 33.6455 44.037 33.3114 44.2992 33.0492C44.5614 32.787 44.8955 32.6084 45.2592 32.536C45.6229 32.4637 45.9999 32.5008 46.3425 32.6427C46.6851 32.7846 46.978 33.025 47.184 33.3333C47.39 33.6416 47.5 34.0042 47.5 34.375C47.5 34.8723 47.3025 35.3492 46.9508 35.7008C46.5992 36.0525 46.1223 36.25 45.625 36.25ZM48.75 40.625C48.75 40.9958 48.64 41.3584 48.434 41.6667C48.228 41.975 47.9351 42.2154 47.5925 42.3573C47.2499 42.4992 46.8729 42.5363 46.5092 42.464C46.1455 42.3916 45.8114 42.213 45.5492 41.9508C45.287 41.6886 45.1084 41.3545 45.036 40.9908C44.9637 40.6271 45.0008 40.2501 45.1427 39.9075C45.2846 39.5649 45.525 39.272 45.8333 39.066C46.1417 38.86 46.5042 38.75 46.875 38.75C47.3723 38.75 47.8492 38.9475 48.2008 39.2992C48.5525 39.6508 48.75 40.1277 48.75 40.625Z" fill="#2BA7A0"/>
</svg>
