<svg width="16" height="16" viewBox="0 0 16 16" fill="none" xmlns="http://www.w3.org/2000/svg">
<path d="M10.3178 8.59326L11.3278 14.2773C11.3391 14.3442 11.3298 14.413 11.3009 14.4744C11.2721 14.5359 11.2252 14.5871 11.1665 14.6211C11.1077 14.6552 11.04 14.6705 10.9724 14.6651C10.9047 14.6596 10.8403 14.6336 10.7878 14.5906L8.40117 12.7993C8.28595 12.7132 8.14599 12.6667 8.00217 12.6667C7.85835 12.6667 7.71838 12.7132 7.60317 12.7993L5.2125 14.5899C5.16005 14.6329 5.09574 14.6588 5.02816 14.6643C4.96059 14.6698 4.89295 14.6545 4.83428 14.6205C4.7756 14.5865 4.72868 14.5355 4.69978 14.4742C4.67088 14.4128 4.66136 14.3441 4.6725 14.2773L5.68183 8.59326" stroke="#2BA7A0" stroke-width="1.33333" stroke-linecap="round" stroke-linejoin="round"/>
<path d="M8 9.3335C10.2091 9.3335 12 7.54264 12 5.3335C12 3.12436 10.2091 1.3335 8 1.3335C5.79086 1.3335 4 3.12436 4 5.3335C4 7.54264 5.79086 9.3335 8 9.3335Z" stroke="#2BA7A0" stroke-width="1.33333" stroke-linecap="round" stroke-linejoin="round"/>
</svg>
