<svg width="60" height="60" viewBox="0 0 60 60" fill="none" xmlns="http://www.w3.org/2000/svg">
<rect width="60" height="60" rx="30" fill="white"/>
<path d="M36.6663 30.8333C36.6663 35 33.7497 37.0833 30.283 38.2916C30.1015 38.3531 29.9043 38.3502 29.7247 38.2833C26.2497 37.0833 23.333 35 23.333 30.8333V25C23.333 24.779 23.4208 24.567 23.5771 24.4107C23.7334 24.2544 23.9453 24.1666 24.1663 24.1666C25.833 24.1666 27.9163 23.1666 29.3663 21.9C29.5429 21.7491 29.7675 21.6663 29.9997 21.6663C30.2319 21.6663 30.4565 21.7491 30.633 21.9C32.0913 23.175 34.1663 24.1666 35.833 24.1666C36.054 24.1666 36.266 24.2544 36.4223 24.4107C36.5785 24.567 36.6663 24.779 36.6663 25V30.8333Z" stroke="#FCB040" stroke-width="1.66667" stroke-linecap="round" stroke-linejoin="round"/>
</svg>
