<?xml version="1.0" encoding="UTF-8"?>
<svg version="1.1" xmlns="http://www.w3.org/2000/svg" width="1494" height="1600">
<path d="M0 0 C493.02 0 986.04 0 1494 0 C1494 528 1494 1056 1494 1600 C1000.98 1600 507.96 1600 0 1600 C0 1072 0 544 0 0 Z " fill="#FEFEFE" transform="translate(0,0)"/>
<path d="M0 0 C2.53528364 1.72582561 4.94298608 3.54566873 7.34375 5.453125 C7.9934375 5.9275 8.643125 6.401875 9.3125 6.890625 C16.41397345 12.37246415 21.01035506 20.85817384 23.34375 29.453125 C23.40949219 30.195625 23.47523438 30.938125 23.54296875 31.703125 C23.81234413 34.31739097 24.14060288 36.10171116 25.34375 38.453125 C29.0699378 41.3675563 33.0908573 43.41131333 37.34375 45.453125 C40.67708333 47.11979167 44.01041667 48.78645833 47.34375 50.453125 C47.34375 51.113125 47.34375 51.773125 47.34375 52.453125 C48.5503125 52.7934375 48.5503125 52.7934375 49.78125 53.140625 C53.51254739 54.51531351 56.75830214 56.25658658 60.1953125 58.234375 C62.21480733 59.37997934 64.25814982 60.43391767 66.34375 61.453125 C66.34375 62.113125 66.34375 62.773125 66.34375 63.453125 C67.106875 63.659375 67.87 63.865625 68.65625 64.078125 C76.14578047 66.87083128 83.01484583 71.10432969 89.6875 75.47265625 C91.49296271 76.62016841 91.49296271 76.62016841 94.34375 77.453125 C94.67375 78.113125 95.00375 78.773125 95.34375 79.453125 C97.45390954 80.58019206 97.45390954 80.58019206 99.90625 81.578125 C100.73253906 81.93132812 101.55882812 82.28453125 102.41015625 82.6484375 C103.04824219 82.91398438 103.68632813 83.17953125 104.34375 83.453125 C104.34375 84.113125 104.34375 84.773125 104.34375 85.453125 C105.58511719 85.82050781 105.58511719 85.82050781 106.8515625 86.1953125 C110.87663756 87.64505989 114.47602714 89.5254301 118.21875 91.578125 C118.90710938 91.95066406 119.59546875 92.32320312 120.3046875 92.70703125 C121.98669798 93.61812026 123.66555436 94.53502815 125.34375 95.453125 C125.34375 96.113125 125.34375 96.773125 125.34375 97.453125 C126.22417969 97.71351563 127.10460937 97.97390625 128.01171875 98.2421875 C131.30705722 99.43978999 133.76509716 100.86642426 136.65625 102.828125 C141.37887121 105.92694083 146.10071855 108.36885818 151.34375 110.453125 C151.34375 111.113125 151.34375 111.773125 151.34375 112.453125 C152.271875 112.741875 153.2 113.030625 154.15625 113.328125 C157.34375 114.453125 157.34375 114.453125 160.34375 116.453125 C164.86824812 116.15804904 167.55641515 114.81027746 171.34375 112.453125 C172.55679204 111.72874514 173.77180001 111.00765179 174.98828125 110.2890625 C175.65674072 109.89364258 176.3252002 109.49822266 177.01391602 109.09082031 C180.02743314 107.31464817 183.0473134 105.54946299 186.06835938 103.78613281 C187.52820877 102.93089916 188.98548702 102.0712526 190.43945312 101.20605469 C212.78087504 87.91171681 236.57606571 81.45068005 262.6484375 86.76171875 C271.20229828 88.95596999 278.81203297 91.84160001 286.34375 96.453125 C288.09300053 97.51685843 289.84301402 98.57933815 291.59375 99.640625 C292.38265625 100.12917969 293.1715625 100.61773438 293.984375 101.12109375 C296.37762188 102.47224803 298.77232713 103.49112105 301.34375 104.453125 C301.34375 105.113125 301.34375 105.773125 301.34375 106.453125 C302.148125 106.659375 302.9525 106.865625 303.78125 107.078125 C307.73430722 108.60386638 310.76951914 110.65512426 314.1953125 113.11328125 C316.28899974 114.41898075 317.93418536 115.0115532 320.34375 115.453125 C320.34375 116.113125 320.34375 116.773125 320.34375 117.453125 C326.44028014 115.24799708 331.93170378 112.66016336 337.4296875 109.23046875 C341.75846512 106.59026256 346.19744409 104.15179601 350.63525391 101.70043945 C354.67086221 99.45405398 358.50453595 97.02666409 362.34375 94.453125 C364.08081008 93.47153188 365.83078402 92.5123914 367.59375 91.578125 C371.05907147 89.71111357 374.47839201 87.80719707 377.84375 85.765625 C382.92969421 82.69269587 388.03403201 79.65264029 393.15625 76.640625 C393.98125 76.14796143 394.80625 75.65529785 395.65625 75.14770508 C396.44644531 74.68517334 397.23664062 74.2226416 398.05078125 73.74609375 C398.7569458 73.3286792 399.46311035 72.91126465 400.19067383 72.48120117 C402.56283274 71.34851479 404.75631842 70.86667248 407.34375 70.453125 C407.34375 69.793125 407.34375 69.133125 407.34375 68.453125 C408.1275 68.081875 408.91125 67.710625 409.71875 67.328125 C412.46956688 65.95271656 415.09127522 64.42591372 417.71875 62.828125 C422.72948906 59.78722805 427.82501147 56.91980449 432.94433594 54.06762695 C436.63987057 52.0002586 440.30618387 49.89457687 443.94140625 47.72265625 C444.69800537 47.27116211 445.45460449 46.81966797 446.23413086 46.35449219 C447.68719982 45.48388909 449.1374085 44.60848798 450.58422852 43.72753906 C454.41783937 41.43191925 458.01033261 39.68835145 462.34375 38.453125 C462.22 36.8134375 462.22 36.8134375 462.09375 35.140625 C462.10832391 26.90636339 466.00460278 17.71281485 471.34375 11.453125 C472.82875 10.958125 472.82875 10.958125 474.34375 10.453125 C475.55257096 8.45296034 475.55257096 8.45296034 476.34375 6.453125 C477.00375 6.453125 477.66375 6.453125 478.34375 6.453125 C478.34375 5.793125 478.34375 5.133125 478.34375 4.453125 C480.52751766 3.32035232 482.71532128 2.19689711 484.90625 1.078125 C485.51533203 0.76101563 486.12441406 0.44390625 486.75195312 0.1171875 C496.4910299 -4.82964515 506.25124487 -6.18654016 516.9765625 -3.70703125 C530.53926231 0.71947627 540.56925793 8.44919999 547.20703125 21.0546875 C552.30707555 31.81560572 553.54937207 44.61070367 549.51171875 55.984375 C545.42414406 64.62433221 539.98380721 71.73114123 532.34375 77.453125 C530.9825 78.5359375 530.9825 78.5359375 529.59375 79.640625 C519.54926101 85.24235925 509.63382443 86.67650768 498.34375 85.453125 C495.52858927 84.58885273 493.05726202 83.6021713 490.45703125 82.23046875 C487.65572217 81.20004268 486.17332807 81.56532848 483.34375 82.453125 C480.94117861 83.66856685 480.94117861 83.66856685 478.59375 85.203125 C475.37967194 87.20003741 472.16486849 89.13946455 468.84375 90.953125 C463.08690256 94.11989697 457.48535766 97.53932919 451.875 100.95703125 C447.56385682 103.56963859 443.22693463 106.07548865 438.78125 108.453125 C434.39258001 110.80286616 430.3376712 113.4201731 426.31640625 116.3515625 C424.34375 117.453125 424.34375 117.453125 420.34375 117.453125 C420.34375 118.113125 420.34375 118.773125 420.34375 119.453125 C418.6421875 120.2575 418.6421875 120.2575 416.90625 121.078125 C413.75188766 122.64699063 410.86770422 124.39081166 407.96875 126.390625 C404.03750604 129.08149371 399.99920275 131.22117811 395.7109375 133.28515625 C393.52676839 134.36282385 391.43934084 135.52653083 389.34375 136.765625 C386.34375 138.453125 386.34375 138.453125 384.34375 138.453125 C384.34375 139.113125 384.34375 139.773125 384.34375 140.453125 C383.074197 141.10147154 381.80305294 141.74670315 380.53125 142.390625 C379.82355469 142.75027344 379.11585938 143.10992188 378.38671875 143.48046875 C376.34375 144.453125 376.34375 144.453125 373.34375 145.453125 C373.34375 146.443125 373.34375 147.433125 373.34375 148.453125 C373.90707031 148.56011719 374.47039063 148.66710937 375.05078125 148.77734375 C377.72343949 149.56502667 379.68153354 150.77103885 382.03125 152.265625 C386.64655084 155.11161289 391.33305199 157.395592 396.34375 159.453125 C396.34375 160.113125 396.34375 160.773125 396.34375 161.453125 C397.16875 161.700625 397.99375 161.948125 398.84375 162.203125 C404.59389812 164.25674933 410.30310153 166.98767918 415.34375 170.453125 C415.34375 171.113125 415.34375 171.773125 415.34375 172.453125 C416.02953125 172.70964844 416.7153125 172.96617187 417.421875 173.23046875 C420.76988166 174.63143945 423.90304053 176.28672247 427.09375 178.015625 C428.24359375 178.63566406 429.3934375 179.25570312 430.578125 179.89453125 C433.34375 181.453125 433.34375 181.453125 434.34375 182.453125 C440.42843557 182.68689423 440.42843557 182.68689423 446.34375 181.453125 C446.34375 180.793125 446.34375 180.133125 446.34375 179.453125 C447.08238281 179.08960938 447.82101562 178.72609375 448.58203125 178.3515625 C454.86842311 175.23632384 461.05587413 172.0071418 467.1640625 168.5546875 C469.34375 167.453125 469.34375 167.453125 471.34375 167.453125 C471.34375 166.793125 471.34375 166.133125 471.34375 165.453125 C472.96954207 164.53861696 474.5953447 163.62412769 476.22119141 162.7097168 C477.65072686 161.90550034 479.08008542 161.10096937 480.50927734 160.29614258 C484.25475845 158.1875178 488.00284581 156.08388035 491.7578125 153.9921875 C492.46421875 153.59765381 493.170625 153.20312012 493.8984375 152.79663086 C495.24369442 152.0454762 496.58999317 151.29618326 497.9375 150.54907227 C501.86819896 148.35079625 505.60013108 145.96198919 509.34375 143.453125 C511.64654252 142.07567965 513.95180383 140.72063882 516.28125 139.390625 C516.86326172 139.05224609 517.44527344 138.71386719 518.04492188 138.36523438 C522.0354125 136.08053487 526.1012974 134.24146699 530.34375 132.453125 C532.22528817 131.48658142 534.10051218 130.50763297 535.96875 129.515625 C542.27075088 126.35296858 548.57518244 124.36491148 555.34375 122.453125 C556.85909269 121.97719315 558.37334906 121.49779381 559.88671875 121.015625 C593.27266165 110.59195957 635.60825969 106.61271306 669.2734375 118.41796875 C672.96167154 119.66145733 676.68484727 120.55435457 680.46875 121.453125 C690.97432608 124.02344054 699.95721299 127.60483533 709.41796875 132.86328125 C712.39832932 134.54535692 712.39832932 134.54535692 715.90625 135.953125 C727.44534084 140.98836464 738.0516023 148.40659168 747.765625 156.34765625 C749.44649217 157.72036444 751.1439102 159.07312491 752.859375 160.40234375 C764.86989437 169.84174895 775.92371088 180.69963327 784.7421875 193.1953125 C786.29025733 195.51138852 786.29025733 195.51138852 788.34375 197.453125 C788.34375 198.443125 788.34375 199.433125 788.34375 200.453125 C789.00375 200.453125 789.66375 200.453125 790.34375 200.453125 C791.85442905 202.54994752 793.23690786 204.63435744 794.59375 206.828125 C794.99561523 207.46862793 795.39748047 208.10913086 795.81152344 208.76904297 C796.62121759 210.0633219 797.42756721 211.35969949 798.23046875 212.65820312 C799.17192324 214.17609203 800.13092053 215.68307895 801.09375 217.1875 C804.39896188 222.45518143 806.89440941 227.82465762 809.19921875 233.59765625 C810.16396402 236.00458045 811.19253395 238.3509607 812.28125 240.703125 C817.41940521 252.22757029 821.6603312 264.11587758 824.34375 276.453125 C824.61880371 277.68144043 824.61880371 277.68144043 824.89941406 278.93457031 C830.79620699 306.34318314 830.63894032 336.14678126 824.34375 363.453125 C824.05491943 364.76917725 824.05491943 364.76917725 823.76025391 366.11181641 C820.24830733 381.98745797 815.43969308 397.09056653 807.859375 411.5 C806.51682428 414.1158978 805.42310222 416.72272978 804.34375 419.453125 C803.70392343 420.65529914 803.03920898 421.8447546 802.34375 423.015625 C800.91430141 425.47248976 799.57173615 427.89482052 798.34375 430.453125 C797.68375 430.453125 797.02375 430.453125 796.34375 430.453125 C796.09625 431.13375 795.84875 431.814375 795.59375 432.515625 C794.10177092 436.02177583 792.27539489 439.16932868 790.34375 442.453125 C789.68375 442.453125 789.02375 442.453125 788.34375 442.453125 C788.10269531 442.99066406 787.86164063 443.52820313 787.61328125 444.08203125 C786.01058992 447.07536552 784.0688786 449.6749284 782.03125 452.390625 C781.27199219 453.41027344 780.51273438 454.42992187 779.73046875 455.48046875 C777.42470437 458.35229639 774.97303574 460.87950818 772.34375 463.453125 C771.3073004 464.64809042 770.28398566 465.85473163 769.28125 467.078125 C767.16458869 469.57567652 765.17104804 471.73655119 762.34375 473.453125 C761.68375 473.453125 761.02375 473.453125 760.34375 473.453125 C760.12332031 474.0203125 759.90289063 474.5875 759.67578125 475.171875 C757.92817608 478.16484104 755.7454468 479.8082117 753.03125 481.953125 C751.61392578 483.08234375 751.61392578 483.08234375 750.16796875 484.234375 C749.23597656 484.9665625 748.30398438 485.69875 747.34375 486.453125 C746.53421875 487.11828125 745.7246875 487.7834375 744.890625 488.46875 C741.99999541 490.72095833 738.99256133 492.73431629 735.90625 494.703125 C735.30586914 495.08718506 734.70548828 495.47124512 734.08691406 495.86694336 C729.64606219 498.68198206 725.14788947 501.38807651 720.59375 504.015625 C719.99763916 504.36206055 719.40152832 504.70849609 718.78735352 505.06542969 C714.58811353 507.453125 714.58811353 507.453125 712.34375 507.453125 C712.34375 508.113125 712.34375 508.773125 712.34375 509.453125 C711.70824219 509.67484375 711.07273437 509.8965625 710.41796875 510.125 C706.12708383 511.97874952 702.18337445 514.3390618 698.15625 516.703125 C696.87488159 517.45009644 696.87488159 517.45009644 695.56762695 518.2121582 C690.60928589 521.10771589 685.67636419 524.04263003 680.76171875 527.01171875 C672.31039792 532.0497436 663.7026721 536.816711 655.09375 541.578125 C647.97807328 545.51681497 640.89995761 549.49668736 634.07421875 553.92578125 C633.35878906 554.38855469 632.64335938 554.85132813 631.90625 555.328125 C630.98005859 555.94300781 630.98005859 555.94300781 630.03515625 556.5703125 C628.34375 557.453125 628.34375 557.453125 625.34375 557.453125 C625.34375 558.113125 625.34375 558.773125 625.34375 559.453125 C622.97183416 560.75073799 620.59650386 562.04128817 618.21875 563.328125 C617.55359375 563.69292969 616.8884375 564.05773437 616.203125 564.43359375 C612.32836071 566.52292744 608.58687631 568.19737111 604.34375 569.453125 C604.34375 570.113125 604.34375 570.773125 604.34375 571.453125 C588.99611486 580.11866554 588.99611486 580.11866554 582.46875 583.640625 C576.51825095 586.86679919 570.75084677 590.37631148 564.97265625 593.8984375 C561.90213306 595.71428925 558.78998315 597.43618861 555.65625 599.140625 C554.51800781 599.76324219 553.37976563 600.38585938 552.20703125 601.02734375 C549.34375 602.453125 549.34375 602.453125 547.34375 602.453125 C547.34375 603.113125 547.34375 603.773125 547.34375 604.453125 C546.82425781 604.70707031 546.30476562 604.96101563 545.76953125 605.22265625 C542.59324435 606.79025071 539.4968747 608.35991866 536.46875 610.203125 C534.34375 611.453125 534.34375 611.453125 532.34375 611.453125 C532.34375 612.113125 532.34375 612.773125 532.34375 613.453125 C531.34214844 613.81857422 531.34214844 613.81857422 530.3203125 614.19140625 C526.62706466 615.75691682 523.20377376 617.66165449 519.71875 619.640625 C519.00726807 620.0420874 518.29578613 620.4435498 517.56274414 620.85717773 C513.55839851 623.13470871 509.6403555 625.49705089 505.78125 628.015625 C501.70547504 630.6639676 497.52220486 633.01276109 493.21875 635.265625 C485.50102877 639.30739571 478.01559218 643.69651019 470.53173828 648.15332031 C466.83187849 650.35127317 463.11799021 652.52531824 459.40625 654.703125 C454.91047113 657.34322959 450.42641168 659.99895109 445.96875 662.703125 C431.41875 671.453125 431.41875 671.453125 428.34375 671.453125 C428.34375 672.113125 428.34375 672.773125 428.34375 673.453125 C427.580625 673.741875 426.8175 674.030625 426.03125 674.328125 C423.19345692 675.41581513 423.19345692 675.41581513 420.34375 677.453125 C419.35375 677.453125 418.36375 677.453125 417.34375 677.453125 C417.34375 678.113125 417.34375 678.773125 417.34375 679.453125 C416.35375 679.97261719 415.36375 680.49210937 414.34375 681.02734375 C405.25423494 685.81524763 405.25423494 685.81524763 396.46484375 691.125 C391.85022591 694.01444763 387.0766701 696.6429763 382.33789062 699.32226562 C380.2058952 700.53130123 378.07942167 701.74972302 375.953125 702.96875 C374.50012823 703.79709997 373.04700578 704.62522952 371.59375 705.453125 C370.90216797 705.85112305 370.21058594 706.24912109 369.49804688 706.65917969 C364.57103652 709.453125 364.57103652 709.453125 362.34375 709.453125 C362.34375 710.113125 362.34375 710.773125 362.34375 711.453125 C361.76109375 711.73285156 361.1784375 712.01257812 360.578125 712.30078125 C353.63101122 715.6978762 347.0001436 719.52344685 340.34375 723.453125 C337.80712826 724.94111713 335.26458685 726.41846431 332.71875 727.890625 C332.11450195 728.24487549 331.51025391 728.59912598 330.88769531 728.96411133 C326.57217124 731.453125 326.57217124 731.453125 324.34375 731.453125 C324.34375 732.113125 324.34375 732.773125 324.34375 733.453125 C323.33441406 733.81277344 323.33441406 733.81277344 322.3046875 734.1796875 C318.64335908 735.75434854 315.35925744 737.74480115 311.96875 739.828125 C307.71147497 742.42402441 303.44656454 744.99028159 299.10791016 747.44824219 C297.26853026 748.49597089 295.44273326 749.56508987 293.6171875 750.63671875 C285.44793849 755.38841187 277.3999464 759.59857607 268.34375 762.453125 C267.35246094 762.77152344 266.36117187 763.08992188 265.33984375 763.41796875 C257.25928933 765.56947833 249.35776901 765.73016332 241.03125 765.765625 C239.92177002 765.77118408 238.81229004 765.77674316 237.66918945 765.7824707 C220.32415104 765.63008131 206.47673005 758.18214107 191.34375 750.453125 C190.68375 750.123125 190.02375 749.793125 189.34375 749.453125 C189.34375 748.793125 189.34375 748.133125 189.34375 747.453125 C188.49167969 747.20046875 187.63960937 746.9478125 186.76171875 746.6875 C183.10052789 745.36528707 180.00964506 743.67616018 176.65625 741.703125 C175.43152063 740.98867222 174.20625244 740.27514237 172.98046875 739.5625 C172.37380371 739.20865234 171.76713867 738.85480469 171.14208984 738.49023438 C166.92442127 736.05788899 162.62969432 733.76228684 158.34375 731.453125 C158.34375 730.793125 158.34375 730.133125 158.34375 729.453125 C157.56 729.30875 156.77625 729.164375 155.96875 729.015625 C153.34375 728.453125 153.34375 728.453125 151.34375 727.453125 C151.34375 726.793125 151.34375 726.133125 151.34375 725.453125 C150.75907959 725.32494385 150.17440918 725.1967627 149.57202148 725.06469727 C147.40754104 724.47063311 145.67167572 723.71224431 143.69140625 722.66796875 C143.00344971 722.30590332 142.31549316 721.94383789 141.60668945 721.57080078 C140.88054443 721.18134277 140.15439941 720.79188477 139.40625 720.390625 C138.65496826 719.99085449 137.90368652 719.59108398 137.12963867 719.17919922 C131.33247552 716.06138685 125.72845987 712.71651818 120.17578125 709.1796875 C117.30181538 707.42755934 114.37347916 705.91637197 111.34375 704.453125 C111.34375 703.793125 111.34375 703.133125 111.34375 702.453125 C110.49683594 702.20304687 109.64992188 701.95296875 108.77734375 701.6953125 C105.0665107 700.35282682 101.78699808 698.57905181 98.40625 696.578125 C97.82423828 696.23910156 97.24222656 695.90007813 96.64257812 695.55078125 C95.45955833 694.86166894 94.27760229 694.17072743 93.09667969 693.47802734 C88.55239442 690.82107615 83.96528507 688.2386999 79.3828125 685.6484375 C77.57809079 684.62506032 75.77340398 683.60162161 73.96875 682.578125 C73.07414062 682.07410156 72.17953125 681.57007813 71.2578125 681.05078125 C66.13387517 678.13877617 61.18040167 675.09137385 56.33569336 671.73339844 C53.46586309 669.88888442 50.52439168 668.67124309 47.34375 667.453125 C47.34375 666.793125 47.34375 666.133125 47.34375 665.453125 C46.03470703 665.05867188 46.03470703 665.05867188 44.69921875 664.65625 C41.38065879 663.46635888 38.66616124 662.02631817 35.65625 660.203125 C30.81464257 657.31493839 25.9274474 654.55615615 20.96875 651.875 C17.0759348 649.76639177 13.20972724 647.61043576 9.34375 645.453125 C9.34375 644.793125 9.34375 644.133125 9.34375 643.453125 C8.51617187 643.20820312 7.68859375 642.96328125 6.8359375 642.7109375 C2.81086244 641.26119011 -0.78852714 639.3808199 -4.53125 637.328125 C-5.21960938 636.95558594 -5.90796875 636.58304688 -6.6171875 636.19921875 C-8.29919798 635.28812974 -9.97805436 634.37122185 -11.65625 633.453125 C-11.65625 632.793125 -11.65625 632.133125 -11.65625 631.453125 C-12.51476562 631.19660156 -13.37328125 630.94007813 -14.2578125 630.67578125 C-17.80591458 629.39928016 -20.78246312 627.80054128 -24.03125 625.890625 C-25.24961489 625.1803286 -26.46838249 624.47072262 -27.6875 623.76171875 C-28.64462891 623.20266846 -28.64462891 623.20266846 -29.62109375 622.63232422 C-33.23761968 620.53685634 -36.88549853 618.49717796 -40.53125 616.453125 C-41.90365102 615.6823009 -43.27604731 614.91146839 -44.6484375 614.140625 C-45.64101563 613.58375 -46.63359375 613.026875 -47.65625 612.453125 C-47.65625 611.793125 -47.65625 611.133125 -47.65625 610.453125 C-48.50832031 610.20046875 -49.36039062 609.9478125 -50.23828125 609.6875 C-53.89947211 608.36528707 -56.99035494 606.67616018 -60.34375 604.703125 C-61.58148772 603.98083861 -62.81977544 603.25949395 -64.05859375 602.5390625 C-64.66687012 602.18424805 -65.27514648 601.82943359 -65.90185547 601.46386719 C-68.37781831 600.0374149 -70.88964075 598.6812947 -73.40625 597.328125 C-77.65536202 595.02729578 -81.79845354 592.59090793 -85.9296875 590.0859375 C-95.646264 584.26712808 -105.52547607 578.51851196 -115.65625 573.453125 C-115.65625 572.793125 -115.65625 572.133125 -115.65625 571.453125 C-116.501875 571.205625 -117.3475 570.958125 -118.21875 570.703125 C-122.05380092 569.30856103 -125.14738341 567.53245335 -128.65625 565.453125 C-129.98271156 564.7728883 -131.31233877 564.09820239 -132.65625 563.453125 C-132.65625 562.793125 -132.65625 562.133125 -132.65625 561.453125 C-133.21699219 561.33582031 -133.77773438 561.21851563 -134.35546875 561.09765625 C-141.18408946 559.18471497 -147.56938015 555.02585296 -153.65625 551.453125 C-153.65625 550.793125 -153.65625 550.133125 -153.65625 549.453125 C-154.48527832 549.28985718 -154.48527832 549.28985718 -155.33105469 549.12329102 C-158.09338186 548.32713519 -160.34256391 547.1205679 -162.859375 545.73046875 C-163.8390625 545.19228516 -164.81875 544.65410156 -165.828125 544.09960938 C-166.84390625 543.53564453 -167.8596875 542.97167969 -168.90625 542.390625 C-169.9375 541.82279297 -170.96875 541.25496094 -172.03125 540.66992188 C-174.57520018 539.26839377 -177.11673283 537.8626648 -179.65625 536.453125 C-179.65625 535.793125 -179.65625 535.133125 -179.65625 534.453125 C-180.22085938 534.33839844 -180.78546875 534.22367188 -181.3671875 534.10546875 C-183.92200352 533.37738978 -185.96869685 532.31885312 -188.28125 531.015625 C-189.05726563 530.58378906 -189.83328125 530.15195312 -190.6328125 529.70703125 C-192.65625 528.453125 -192.65625 528.453125 -194.65625 526.453125 C-196.72499034 525.8106015 -196.72499034 525.8106015 -198.65625 525.453125 C-198.65625 524.793125 -198.65625 524.133125 -198.65625 523.453125 C-199.50703125 523.20046875 -200.3578125 522.9478125 -201.234375 522.6875 C-204.90972925 521.36168728 -208.03328256 519.6719612 -211.40625 517.703125 C-212.01678223 517.34895508 -212.62731445 516.99478516 -213.25634766 516.62988281 C-216.87139541 514.52592692 -220.45537471 512.37300598 -224.03125 510.203125 C-228.14046691 507.71310283 -232.32776101 505.53721229 -236.65625 503.453125 C-236.65625 502.793125 -236.65625 502.133125 -236.65625 501.453125 C-237.749375 501.164375 -238.8425 500.875625 -239.96875 500.578125 C-243.65625 499.453125 -243.65625 499.453125 -246.65625 497.453125 C-246.65625 496.793125 -246.65625 496.133125 -246.65625 495.453125 C-247.64625 495.1128125 -247.64625 495.1128125 -248.65625 494.765625 C-255.01307567 491.98451377 -259.81774464 488.40964269 -264.65625 483.453125 C-266.08154613 482.33324947 -267.52043566 481.23056805 -268.96875 480.140625 C-273.60325402 476.60112859 -277.61633545 472.64532014 -281.65625 468.453125 C-282.460625 467.669375 -283.265 466.885625 -284.09375 466.078125 C-296.97520732 452.8824858 -307.24197591 438.41424082 -316.59375 422.578125 C-317.32126465 421.36503662 -317.32126465 421.36503662 -318.06347656 420.12744141 C-320.52629272 415.89606697 -322.27936048 412.44089692 -322.65625 407.453125 C-323.31625 407.453125 -323.97625 407.453125 -324.65625 407.453125 C-324.98238281 406.52371094 -325.30851562 405.59429688 -325.64453125 404.63671875 C-328.26584094 397.16890872 -328.26584094 397.16890872 -331.21875 389.828125 C-335.45835977 379.87425859 -337.68607373 369.9312527 -339.34375 359.265625 C-339.55580078 357.96431641 -339.76785156 356.66300781 -339.98632812 355.32226562 C-340.56849999 351.70251561 -341.12298849 348.08037515 -341.65625 344.453125 C-341.83293213 343.25816406 -341.83293213 343.25816406 -342.01318359 342.0390625 C-344.94866061 319.39847133 -344.12970952 292.93157784 -336.6171875 271.26953125 C-335.64953382 268.4334406 -334.94933045 265.62302954 -334.28125 262.703125 C-331.4594334 251.13981134 -327.34558022 239.91085068 -321.65625 229.453125 C-321.140625 228.421875 -320.625 227.390625 -320.09375 226.328125 C-318.28125 222.703125 -316.46875 219.078125 -314.65625 215.453125 C-313.99625 215.453125 -313.33625 215.453125 -312.65625 215.453125 C-312.2540625 214.1228125 -312.2540625 214.1228125 -311.84375 212.765625 C-310.7311865 209.6621584 -309.55429222 207.14201815 -307.65625 204.453125 C-306.99625 204.453125 -306.33625 204.453125 -305.65625 204.453125 C-305.39457031 203.72996094 -305.13289063 203.00679687 -304.86328125 202.26171875 C-300.94946235 193.15480681 -293.60278537 185.35921475 -286.65625 178.453125 C-285.79386719 177.57914063 -284.93148437 176.70515625 -284.04296875 175.8046875 C-273.78956507 165.44741432 -262.89555668 155.44614161 -250.65625 147.453125 C-249.66625 147.453125 -248.67625 147.453125 -247.65625 147.453125 C-247.65625 146.793125 -247.65625 146.133125 -247.65625 145.453125 C-238.48233586 140.08540928 -229.20570908 135.1214868 -219.65625 130.453125 C-218.09197266 129.65455078 -218.09197266 129.65455078 -216.49609375 128.83984375 C-214.22698576 127.7318199 -212.11656316 126.83326452 -209.71875 126.078125 C-206.91151457 125.18299651 -204.12147429 124.26604799 -201.33984375 123.29296875 C-160.59719389 109.16481763 -116.40897619 108.27088683 -75.14672852 120.70336914 C-73.44774371 121.21484668 -71.74486123 121.71350965 -70.03881836 122.20092773 C-65.09387034 123.62766836 -60.4942912 125.27350218 -55.84375 127.515625 C-52.14798779 129.2847292 -48.4664401 130.94809991 -44.65625 132.453125 C-39.4259595 134.83545194 -34.53260561 137.69350891 -29.62890625 140.6796875 C-25.98448342 142.85388982 -22.2946743 144.93947584 -18.59375 147.015625 C-17.89749512 147.40621094 -17.20124023 147.79679688 -16.48388672 148.19921875 C-12.92343593 150.19273331 -9.35576365 152.17242033 -5.78125 154.140625 C0.16086386 157.43548737 6.06075494 160.84366815 11.65625 164.703125 C14.17599226 166.3438874 16.55581419 167.36892774 19.34375 168.453125 C20.00375 169.113125 20.66375 169.773125 21.34375 170.453125 C23.41249034 171.0956485 23.41249034 171.0956485 25.34375 171.453125 C25.34375 172.113125 25.34375 172.773125 25.34375 173.453125 C26.189375 173.700625 27.035 173.948125 27.90625 174.203125 C31.73451088 175.59521987 34.84883005 177.36961503 38.34375 179.453125 C39.00375 179.783125 39.66375 180.113125 40.34375 180.453125 C40.34375 181.113125 40.34375 181.773125 40.34375 182.453125 C47.46560182 183.13470129 47.46560182 183.13470129 53.90625 180.765625 C54.710625 180.0025 55.515 179.239375 56.34375 178.453125 C65.21060552 173.453125 65.21060552 173.453125 68.34375 173.453125 C68.34375 172.793125 68.34375 172.133125 68.34375 171.453125 C69.519375 171.02 69.519375 171.02 70.71875 170.578125 C73.44046632 169.60400246 73.44046632 169.60400246 75.34375 167.453125 C77.01041667 166.78645833 78.67708333 166.11979167 80.34375 165.453125 C81.86896894 164.49202813 83.36979047 163.49112467 84.84375 162.453125 C87.93112785 160.27891525 90.83093132 158.82139301 94.34375 157.453125 C95.63567877 156.71819546 96.90794189 155.94742624 98.15625 155.140625 C100.3018767 153.7592501 102.44470183 152.39293226 104.63671875 151.0859375 C105.36503906 150.65023437 106.09335937 150.21453125 106.84375 149.765625 C107.5140625 149.36988281 108.184375 148.97414063 108.875 148.56640625 C109.3596875 148.19902344 109.844375 147.83164062 110.34375 147.453125 C110.34375 146.793125 110.34375 146.133125 110.34375 145.453125 C109.68375 145.123125 109.02375 144.793125 108.34375 144.453125 C108.34375 143.793125 108.34375 143.133125 108.34375 142.453125 C107.62058594 142.34742188 106.89742187 142.24171875 106.15234375 142.1328125 C103.09187822 141.39217133 101.05644511 140.2611873 98.40625 138.578125 C94.7847858 136.32621303 91.19564051 134.27770472 87.34375 132.453125 C87.34375 131.793125 87.34375 131.133125 87.34375 130.453125 C86.580625 130.246875 85.8175 130.040625 85.03125 129.828125 C79.84476406 127.89418109 75.15341916 125.1746104 70.34375 122.453125 C70.34375 121.793125 70.34375 121.133125 70.34375 120.453125 C69.33248047 120.07027344 69.33248047 120.07027344 68.30078125 119.6796875 C64.79242244 118.22443695 61.41696448 116.54364665 58.03125 114.828125 C57.38607422 114.50328125 56.74089844 114.1784375 56.07617188 113.84375 C54.49777459 113.04870544 52.92063306 112.25116866 51.34375 111.453125 C51.34375 110.793125 51.34375 110.133125 51.34375 109.453125 C50.50199219 109.20691406 49.66023438 108.96070313 48.79296875 108.70703125 C44.9455894 107.30838032 41.65879371 105.4801895 38.15625 103.390625 C33.42484198 100.56441579 33.42484198 100.56441579 28.34375 98.453125 C28.34375 97.793125 28.34375 97.133125 28.34375 96.453125 C27.64894531 96.18757812 26.95414062 95.92203125 26.23828125 95.6484375 C23.08698924 94.34709424 20.07374829 92.86609117 17.03125 91.328125 C15.96261719 90.78929687 14.89398438 90.25046875 13.79296875 89.6953125 C12.98472656 89.28539062 12.17648437 88.87546875 11.34375 88.453125 C11.34375 87.793125 11.34375 87.133125 11.34375 86.453125 C10.60125 86.164375 9.85875 85.875625 9.09375 85.578125 C6.34375 84.453125 6.34375 84.453125 4.46875 83.328125 C1.27113312 82.01145923 -1.21914934 82.16669995 -4.65625 82.453125 C-5.790625 82.948125 -6.925 83.443125 -8.09375 83.953125 C-16.46378698 87.37945593 -28.06521823 86.42737124 -36.4140625 83.43359375 C-42.7691441 80.6546295 -48.02483692 77.72778989 -52.65625 72.453125 C-53.12160156 71.93234375 -53.58695312 71.4115625 -54.06640625 70.875 C-57.65625 66.75517932 -57.65625 66.75517932 -57.65625 64.453125 C-58.31625 64.453125 -58.97625 64.453125 -59.65625 64.453125 C-60.336875 62.844375 -60.336875 62.844375 -61.03125 61.203125 C-61.86952383 59.22210995 -62.70005784 57.37767816 -63.78125 55.515625 C-67.92359057 45.75153652 -66.12250158 33.08321307 -62.65625 23.453125 C-61.4383632 20.69432766 -60.1058791 18.10244715 -58.65625 15.453125 C-57.99625 15.453125 -57.33625 15.453125 -56.65625 15.453125 C-56.594375 14.89625 -56.5325 14.339375 -56.46875 13.765625 C-55.3081731 10.46244458 -53.25411554 8.73417767 -50.65625 6.453125 C-49.99625 6.453125 -49.33625 6.453125 -48.65625 6.453125 C-48.65625 5.793125 -48.65625 5.133125 -48.65625 4.453125 C-35.07967098 -5.66275741 -15.06625356 -8.77387707 0 0 Z " fill="#26211E" transform="translate(464.65625,429.546875)"/>
<path d="M0 0 C0.8873584 0.26232422 1.7747168 0.52464844 2.68896484 0.79492188 C12.61986796 3.79306602 21.44365365 7.33100973 30.109375 13.0859375 C32.94182115 14.96147616 35.81563388 16.59080903 38.8125 18.1875 C42.71254584 20.2709306 46.45973376 22.48440557 50.1484375 24.921875 C52.05426004 26.09401834 52.05426004 26.09401834 54.49609375 26.984375 C56.87322273 27.94857708 58.61713281 29.00690501 60.6875 30.5 C65.28422757 33.65976736 70.1029917 36.28324759 75 38.9375 C81.45623684 42.46321367 87.50258797 46.05737267 93 51 C93.54140625 51.4846875 94.0828125 51.969375 94.640625 52.46875 C96.0625 53.8125 96.0625 53.8125 98 56 C98 56.66 98 57.32 98 58 C98.66 58 99.32 58 100 58 C105.85509496 67.48929183 107.44504278 75.51550555 107.3742218 86.64781189 C107.37819621 87.89957405 107.38217061 89.15133621 107.38626546 90.44103056 C107.39679837 93.89440597 107.38875883 97.34752051 107.37751496 100.80088437 C107.36864111 104.53291674 107.37712538 108.26491615 107.38337708 111.99694824 C107.39284666 119.29767848 107.38628249 126.59830961 107.37411413 133.89903247 C107.36047536 142.39907041 107.36213349 150.8990849 107.36424746 159.39913101 C107.36743431 174.55915781 107.35578446 189.71913754 107.33618164 204.87915039 C107.3171552 219.59726391 107.3101006 234.31532233 107.31567383 249.03344727 C107.32172578 265.06324182 107.32156709 281.09301217 107.310188 297.1228047 C107.30898069 298.83026318 107.3077747 300.53772165 107.30657005 302.24518013 C107.30566475 303.50535611 107.30566475 303.50535611 107.30474115 304.79099018 C107.30085671 310.72028649 107.30125756 316.64957381 107.3031559 322.57887077 C107.30527349 329.79606862 107.30008631 337.01321814 107.28554235 344.23040234 C107.27827883 347.91469396 107.27423802 351.59891504 107.27878571 355.28321266 C107.28358637 359.26921407 107.27298531 363.25508615 107.26069641 367.24107361 C107.26447573 368.41584808 107.26825506 369.59062255 107.27214891 370.80099624 C107.26631671 371.8618637 107.26048452 372.92273116 107.25447559 374.01574612 C107.25360882 374.93662563 107.25274204 375.85750514 107.251849 376.80629009 C107 379 107 379 105 381 C102.72265625 381.08203125 102.72265625 381.08203125 100.0625 380.8125 C98.74958984 380.69841797 98.74958984 380.69841797 97.41015625 380.58203125 C94.60755273 379.90522748 93.98658877 379.00113913 92 377 C89.47311361 375.66841605 86.95333186 374.40943722 84.375 373.1875 C79.04888687 370.59998904 74.09654497 367.8915844 69.2421875 364.484375 C65.52851533 362.02584639 61.57534687 360.02456126 57.640625 357.9453125 C53.44897841 355.72331924 49.31856203 353.39469192 45.1875 351.0625 C44.4752124 350.6605542 43.7629248 350.2586084 43.02905273 349.84448242 C41.35215116 348.89729585 39.67599139 347.94879615 38 347 C38 346.34 38 345.68 38 345 C37.34257812 344.93167969 36.68515625 344.86335938 36.0078125 344.79296875 C31.82919124 343.69133224 28.53897525 341.55936937 24.875 339.3125 C23.35242494 338.3957016 21.82898706 337.48033458 20.3046875 336.56640625 C19.56702148 336.12312988 18.82935547 335.67985352 18.06933594 335.22314453 C15.41865804 333.65637999 12.71906663 332.19426343 10 330.75 C5.91326891 328.55892128 2.11874822 326.10590586 -1.70703125 323.4921875 C-5.02472594 321.33314258 -8.49299922 319.4970193 -11.98046875 317.62890625 C-19.72565217 313.45071545 -27.36903814 309.10804019 -34.75 304.3125 C-38.78366969 301.70351307 -42.86319083 299.53211979 -47.1875 297.453125 C-51.46359491 295.24380929 -55.54761767 292.72782723 -59.64746094 290.20947266 C-62.38701036 288.53384713 -65.08702444 286.9569458 -67.96875 285.53125 C-71.72844983 283.63202019 -75.20781948 281.39757417 -78.75 279.125 C-84.03160956 275.77152971 -89.28985103 272.65344262 -94.984375 270.03515625 C-97.19762675 268.89850564 -99.01256092 267.49340773 -101 266 C-102.71456873 265.03606136 -104.44510661 264.10018225 -106.1875 263.1875 C-110.65698509 260.79142577 -114.86535713 258.1908171 -119.02734375 255.296875 C-120.93588802 253.96487706 -120.93588802 253.96487706 -122.94140625 253.140625 C-125.79299841 251.56061568 -127.72554963 249.32299047 -130 247 C-131.65323653 245.69118774 -133.3205245 244.39996768 -135 243.125 C-146.60847317 233.69115994 -155.42705146 221.8022688 -163 209 C-163.47824219 208.20207031 -163.95648438 207.40414062 -164.44921875 206.58203125 C-177.09542769 184.68055267 -182.16982914 161.41877116 -182.24023438 136.34277344 C-182.24991989 134.267167 -182.28104003 132.1925624 -182.3125 130.1171875 C-182.38312483 121.09561794 -181.26486551 112.75836897 -179 104 C-178.61944458 102.47995361 -178.61944458 102.47995361 -178.23120117 100.92919922 C-173.50116425 82.42005874 -165.55739973 63.5424949 -153 49 C-152.30519531 48.18015625 -151.61039063 47.3603125 -150.89453125 46.515625 C-148.65253648 43.95101167 -146.34774108 41.46823168 -144 39 C-143.5045166 38.47728516 -143.0090332 37.95457031 -142.49853516 37.41601562 C-135.81044034 30.40420481 -129.20342601 24.23408776 -121 19 C-119.97390625 18.29875 -118.9478125 17.5975 -117.890625 16.875 C-109.12741359 10.89036781 -109.12741359 10.89036781 -104 9 C-102.66373904 8.4023364 -101.33038713 7.79812691 -100 7.1875 C-68.72957919 -6.64760394 -32.96398459 -10.0430813 0 0 Z " fill="#FEFEFE" transform="translate(371,614)"/>
<path d="M0 0 C0.74254028 -0.00794586 1.48508057 -0.01589172 2.25012207 -0.02407837 C12.67098918 -0.10962967 22.16624736 0.94371797 32.3125 3.375 C33.10422607 3.55337402 33.89595215 3.73174805 34.71166992 3.91552734 C42.06520364 5.60988995 48.96803786 7.81400488 55.75 11.12890625 C57.66348744 12.05939786 59.61677022 12.90884807 61.5859375 13.71484375 C79.94523213 21.52820644 101.32361931 37.43696667 112.3125 54.375 C112.3125 55.035 112.3125 55.695 112.3125 56.375 C112.9725 56.375 113.6325 56.375 114.3125 56.375 C116.6179734 59.15037881 118.41322375 62.31341721 120.3125 65.375 C120.92480469 66.32246094 121.53710938 67.26992188 122.16796875 68.24609375 C131.28507872 83.11371619 137.55911233 100.01316362 139.875 117.3046875 C140.13391397 120.28163271 140.13391397 120.28163271 141.3125 122.375 C141.42369661 124.82599759 141.47661638 127.24756099 141.48046875 129.69921875 C141.48379715 130.43767532 141.48712555 131.1761319 141.49055481 131.93696594 C141.49562793 133.50981016 141.49796302 135.08266519 141.49780273 136.65551758 C141.4999504 139.00817037 141.51799089 141.36032336 141.53710938 143.71289062 C141.59170705 157.54731916 140.32578333 170.66652532 136.125 183.9375 C135.81820313 184.92274658 135.51140625 185.90799316 135.1953125 186.9230957 C132.63465477 194.88399768 129.44598518 202.08996616 125.3125 209.375 C124.80460937 210.34824219 124.29671875 211.32148437 123.7734375 212.32421875 C119.11731739 220.91395758 113.03756614 228.23357072 106.75439453 235.66308594 C105.599166 237.03465086 104.46577832 238.42459955 103.33984375 239.8203125 C93.10794385 252.23937527 78.79120425 261.14090863 65 269.0625 C63.97052246 269.65901367 62.94104492 270.25552734 61.88037109 270.87011719 C56.65041129 273.89550199 51.40585406 276.89462874 46.15234375 279.87890625 C44.70758667 280.70032104 44.70758667 280.70032104 43.23364258 281.53833008 C41.40345578 282.5768688 39.57133028 283.61200023 37.73706055 284.64331055 C36.91890869 285.10648682 36.10075684 285.56966309 35.2578125 286.046875 C34.54125488 286.4500293 33.82469727 286.85318359 33.08642578 287.26855469 C31.15891265 288.37808606 31.15891265 288.37808606 29.3125 290.375 C27.60853157 291.10556617 25.90342808 291.83375639 24.18945312 292.54052734 C21.30785143 293.82165567 18.7190034 295.49548088 16.0625 297.1875 C11.11244391 300.30263999 6.0814525 303.18467811 0.92578125 305.9453125 C-2.45395992 307.79431888 -5.73190791 309.79375224 -9.02270508 311.79541016 C-11.58641755 313.31508214 -14.17954955 314.74584523 -16.8046875 316.15625 C-22.5478303 319.27455957 -28.18320883 322.55674604 -33.8125 325.875 C-40.4047321 329.74832212 -47.01415001 333.58228161 -53.69921875 337.29296875 C-55.40537354 338.24042969 -55.40537354 338.24042969 -57.14599609 339.20703125 C-59.34560317 340.42387604 -61.54767624 341.63627615 -63.75244141 342.84375 C-64.74808105 343.39417969 -65.7437207 343.94460938 -66.76953125 344.51171875 C-67.64843018 344.99342529 -68.5273291 345.47513184 -69.43286133 345.97143555 C-71.53282113 347.27870884 -72.97107497 348.62178803 -74.6875 350.375 C-77.13108851 351.66546653 -79.56748527 352.88152831 -82.0625 354.0625 C-88.53799457 357.20688241 -94.60250146 360.67000092 -100.69140625 364.515625 C-104.2524884 366.72563165 -107.90785813 368.69894533 -111.6015625 370.67578125 C-115.552608 372.85135693 -119.43031873 375.14191642 -123.3125 377.4375 C-124.04855469 377.87022217 -124.78460937 378.30294434 -125.54296875 378.7487793 C-128.57673456 380.53248327 -131.60229179 382.32268718 -134.6015625 384.1640625 C-135.75785156 384.85628906 -135.75785156 384.85628906 -136.9375 385.5625 C-137.87335937 386.14064453 -137.87335937 386.14064453 -138.828125 386.73046875 C-141.42301014 387.62995625 -143.09671614 387.17509502 -145.6875 386.375 C-148.23181753 383.83068247 -147.93934353 382.9430211 -147.94476891 379.41474342 C-147.9512178 378.35920946 -147.95766669 377.30367549 -147.964311 376.21615565 C-147.9612138 375.04731849 -147.9581166 373.87848132 -147.95492554 372.67422485 C-147.95945665 371.43958288 -147.96398776 370.2049409 -147.96865618 368.93288553 C-147.97916298 365.49442417 -147.98061979 362.05617119 -147.97826743 358.61770844 C-147.9778605 354.91330594 -147.988887 351.20893503 -147.99838257 347.50454712 C-148.01502452 340.24030637 -148.02049368 332.97609808 -148.02160732 325.71183987 C-148.02255691 319.80428111 -148.02666273 313.89673307 -148.03300858 307.9891777 C-148.05063475 291.23916788 -148.05984606 274.48918371 -148.05834763 257.73916455 C-148.05826772 256.83540138 -148.0581878 255.93163821 -148.05810547 255.00048828 C-148.05802371 254.09562012 -148.05794195 253.19075196 -148.05785771 252.25846355 C-148.05704587 237.61350422 -148.07615416 222.96864802 -148.1043822 208.3237185 C-148.13313939 193.28538487 -148.14692073 178.24710145 -148.14519465 163.20873964 C-148.14453141 154.76651243 -148.14999381 146.32439312 -148.17155075 137.8821907 C-148.18980054 130.68887049 -148.19407934 123.49570699 -148.1805319 116.3023736 C-148.17401945 112.63503082 -148.17382171 108.96798832 -148.1912384 105.30067444 C-148.20996915 101.31542838 -148.19736866 97.33087191 -148.18197632 93.34561157 C-148.19226344 92.19908163 -148.20255057 91.05255168 -148.21314943 89.87127841 C-148.1049257 77.14446623 -144.16816235 66.87454051 -135.6875 57.375 C-131.38280903 53.39574958 -126.68655261 50.17200449 -121.5390625 47.38671875 C-119.35997535 46.19603611 -117.24725727 44.91425401 -115.125 43.625 C-106.86522593 38.65407214 -98.49770475 33.86484183 -90 29.3125 C-85.2554962 26.74752453 -80.71795539 23.92462402 -76.1953125 20.98828125 C-72.14055667 18.37984798 -68.20716963 16.08964929 -63.7421875 14.25 C-62.25381433 13.61616808 -60.7814167 12.94438615 -59.3203125 12.25 C-39.84407723 3.00312272 -21.36700795 0.12032615 0 0 Z " fill="#FEFEFE" transform="translate(1084.6875,608.625)"/>
<path d="M0 0 C3.15466057 1.56373081 6.23480195 3.22670037 9.3125 4.9375 C13.47020372 7.21699172 17.5998889 9.23995556 22 11 C22 11.66 22 12.32 22 13 C24.475 13.495 24.475 13.495 27 14 C27 14.66 27 15.32 27 16 C27.85980469 16.25136719 28.71960938 16.50273438 29.60546875 16.76171875 C33.20713015 18.07555841 36.08464048 19.75124172 39.3125 21.8125 C42.91463537 24.0838521 46.50748519 26.33959721 50.25 28.375 C55.50715286 31.23809626 60.64553613 34.30093383 65.79785156 37.34716797 C72.08230794 41.06071037 78.39964197 44.69854647 84.8125 48.1875 C86.21435547 48.95126953 86.21435547 48.95126953 87.64453125 49.73046875 C89.08564379 50.50718778 90.53573287 51.26786643 92 52 C92 52.66 92 53.32 92 54 C92.87906006 54.26643311 93.75812012 54.53286621 94.66381836 54.80737305 C97.87611859 55.95571455 100.4746499 57.30871012 103.37890625 59.08203125 C104.37656006 59.68233154 105.37421387 60.28263184 106.40209961 60.90112305 C107.44503174 61.53187744 108.48796387 62.16263184 109.5625 62.8125 C117.87190181 67.75098316 125.74307104 72.12098489 135 75 C135.845625 75.30035156 136.69125 75.60070312 137.5625 75.91015625 C159.50517432 83.6694901 183.51860964 78.56440901 203.95019531 69.00341797 C208.15311312 66.94601061 212.09048185 64.56088592 216 62 C222.60869565 58 222.60869565 58 225 58 C225 57.34 225 56.68 225 56 C225.51304687 55.75507812 226.02609375 55.51015625 226.5546875 55.2578125 C239.03611237 49.16418756 251.16552411 42.26360757 263 35 C267.96525142 31.97282599 273.04211697 29.15357667 278.1171875 26.31640625 C281.7793257 24.26422692 285.41346409 22.18283996 289 20 C292.32841788 17.99168771 295.6629479 15.99394045 299 14 C299.65178223 13.60796387 300.30356445 13.21592773 300.97509766 12.81201172 C303.16787018 11.49454551 305.36488771 10.18437456 307.5625 8.875 C308.25827148 8.45532959 308.95404297 8.03565918 309.67089844 7.60327148 C313.28869648 5.45642297 316.90876158 3.53877975 320.76538086 1.85205078 C321.96087807 1.32721603 321.96087807 1.32721603 323.18052673 0.79177856 C323.78095291 0.53049164 324.38137909 0.26920471 325 0 C325.18695973 14.12521774 325.3274599 28.25024341 325.41449738 42.37644482 C325.45626911 48.93572553 325.51293683 55.49417581 325.60351562 62.05297852 C325.690366 68.38132714 325.73825916 74.70887651 325.75901794 81.03777504 C325.77381322 83.45364278 325.80270555 85.86946619 325.84584045 88.28499413 C325.90382927 91.66646592 325.91191671 95.04462559 325.90820312 98.42651367 C325.93696533 99.42776779 325.96572754 100.42902191 325.99536133 101.46061707 C325.96273505 104.20194139 325.86366842 106.39663149 325 109 C322.59889528 111.33559503 320.04309658 112.65697669 317 114 C316.23768066 114.45882568 315.47536133 114.91765137 314.68994141 115.39038086 C314.08327637 115.74495361 313.47661133 116.09952637 312.8515625 116.46484375 C312.16143066 116.86928711 311.47129883 117.27373047 310.76025391 117.69042969 C310.05562012 118.10196289 309.35098633 118.51349609 308.625 118.9375 C303.94082971 121.68049173 299.26462614 124.43202194 294.625 127.25 C291.51765358 129.12164626 288.37957725 130.90197547 285.1875 132.625 C276.02674045 137.57361905 267.02662841 142.81226373 258 148 C256.76805908 148.70697021 256.76805908 148.70697021 255.51123047 149.42822266 C246.45077434 154.6312752 237.4462143 159.91519025 228.5 165.3125 C222.58089057 168.88119266 216.66525273 172.41601991 210.546875 175.63671875 C208.67872932 176.63669243 206.83826163 177.68883178 205.015625 178.76953125 C196.57638436 183.65811577 188.47236895 186.10348695 179 188 C178.05125 188.19464844 177.1025 188.38929688 176.125 188.58984375 C148.14335518 192.26243463 125.55145422 182.67843366 102.0546875 168.796875 C97.43997649 166.08233911 92.78252905 163.44398695 88.12890625 160.796875 C85.39864088 159.22893234 82.69342129 157.63011305 80 156 C78.37523692 155.02044026 76.75023538 154.04127594 75.125 153.0625 C74.32320312 152.57910156 73.52140625 152.09570312 72.6953125 151.59765625 C69.48455844 149.69447015 66.24460758 147.84457286 63 146 C60.62466717 144.64641675 58.24984256 143.29194318 55.875 141.9375 C55.28074219 141.59912109 54.68648437 141.26074219 54.07421875 140.91210938 C50.69080522 138.98139768 47.33974795 137.00490398 44 135 C41.85710651 133.76571524 39.71099085 132.5370156 37.5625 131.3125 C36.96066895 130.96872314 36.35883789 130.62494629 35.73876953 130.27075195 C32.53458 128.44103262 29.32656503 126.61838967 26.11328125 124.8046875 C25.48671631 124.44979248 24.86015137 124.09489746 24.21459961 123.72924805 C22.46445989 122.7381603 20.71274036 121.74986384 18.9609375 120.76171875 C16 119 16 119 13.95703125 117.46484375 C11.53576844 115.65252129 8.9820027 114.29350744 6.3125 112.875 C1.09915014 110.09915014 1.09915014 110.09915014 0 109 C-0.09550698 107.58321089 -0.12188483 106.16168759 -0.12025452 104.74168396 C-0.12162918 103.8231665 -0.12300385 102.90464905 -0.12442017 101.95829773 C-0.12082489 100.94266251 -0.11722961 99.92702728 -0.11352539 98.88061523 C-0.11367142 97.81733002 -0.11381744 96.7540448 -0.1139679 95.65853882 C-0.11326825 92.12520342 -0.10547343 88.59192 -0.09765625 85.05859375 C-0.09579225 82.61621632 -0.09436827 80.17383851 -0.09336853 77.73146057 C-0.08954189 71.28865536 -0.07971037 64.84587252 -0.06866455 58.40307617 C-0.05845356 51.83447574 -0.05387158 45.2658717 -0.04882812 38.69726562 C-0.03808823 25.79816751 -0.02120104 12.89908494 0 0 Z " fill="#FEFDFD" transform="translate(545,751)"/>
<path d="M0 0 C3.37629194 0.78131663 6.1596323 1.97665342 9.25 3.5625 C10.14203125 4.01753906 11.0340625 4.47257813 11.953125 4.94140625 C12.96632813 5.46541016 12.96632813 5.46541016 14 6 C14 6.66 14 7.32 14 8 C14.84175781 8.24234375 15.68351563 8.4846875 16.55078125 8.734375 C20.40559062 10.14882374 23.7250667 12.08530678 27.1875 14.25 C28.51850602 15.06547782 29.85054479 15.8792723 31.18359375 16.69140625 C31.83312012 17.08730957 32.48264648 17.48321289 33.15185547 17.89111328 C38.23491385 20.94094831 43.50134951 23.67214574 48.734375 26.453125 C54.41078699 29.4997868 59.84363851 32.77940221 65.25 36.28125 C68.82735673 38.51709796 72.52545424 40.48014984 76.24609375 42.46484375 C79.1002632 44.0558914 81.82458253 45.77958046 84.5625 47.5625 C88.74212197 50.27184361 92.97220811 52.52640198 97.45703125 54.6796875 C100.32263735 56.16751371 102.98334799 57.861583 105.6875 59.625 C109.69825181 62.2399646 113.52621484 64.30990338 118 66 C118 66.66 118 67.32 118 68 C119.31291016 68.41958984 119.31291016 68.41958984 120.65234375 68.84765625 C123.71548588 69.9020634 126.60663571 71.11784431 129.5625 72.4375 C152.00416187 81.6541242 176.93209291 80.20393107 199.1875 71 C202.441195 69.39847308 205.47937209 67.51512789 208.51953125 65.54296875 C211.86894558 63.45947479 215.30605445 61.54705267 218.75 59.625 C223.63165334 56.89867673 228.49227768 54.14681586 233.3125 51.3125 C236.98504207 49.15451032 240.6832914 47.07484236 244.4375 45.0625 C249.74280691 42.1993185 254.84256307 39.04578338 259.9609375 35.86328125 C263.06407117 33.96071729 266.21176114 32.19114111 269.40625 30.44921875 C272.88887297 28.50335562 276.31670581 26.46882309 279.75 24.4375 C287.35093493 19.94202874 295.00721803 15.54881212 302.69238281 11.19897461 C307.26950769 8.59905815 311.77934427 5.93435239 316.20874023 3.08911133 C321.289397 0 321.289397 0 325 0 C325 33.33 325 66.66 325 101 C322.03 102.65 319.06 104.3 316 106 C314.11679339 107.08239593 312.2372736 108.17125953 310.36328125 109.26953125 C309.38166016 109.84380859 308.40003906 110.41808594 307.38867188 111.00976562 C306.37353516 111.60466797 305.35839844 112.19957031 304.3125 112.8125 C297.88993118 116.56836553 291.46822902 120.3232385 285 124 C278.63790638 127.61766108 272.31892292 131.30752426 266 135 C258.62525605 139.30944696 251.23756074 143.59040664 243.8125 147.8125 C238.51966152 150.83697913 233.26358142 153.92501541 228 157 C225.91150931 158.21753537 223.82296883 159.43498533 221.734375 160.65234375 C218.40554493 162.59307557 215.08132243 164.54083662 211.765625 166.50390625 C189.21728306 179.77350571 165.34190504 184.64066816 139.75390625 178.33911133 C128.32646176 175.24558093 118.37360238 169.63061518 108.3515625 163.4296875 C103.99710075 160.78229049 99.48667717 158.4139587 95 156 C88.86088435 152.68596412 82.75349752 149.32091593 76.6875 145.875 C75.55699219 145.23304688 74.42648437 144.59109375 73.26171875 143.9296875 C71.11603075 142.6602625 69.00283211 141.33395274 66.9296875 139.94921875 C64.16174105 138.10761171 61.36922542 136.50136491 58.4375 134.9375 C54.89806567 133.04478122 51.42819829 131.08768486 48 129 C41.82340321 125.2542642 35.59695073 121.60770922 29.3190918 118.03466797 C19.58397876 112.49170257 19.58397876 112.49170257 15.14434814 109.75306702 C12.08333092 107.92147087 12.08333092 107.92147087 8.84246826 106.93382263 C4.97943398 105.42492236 2.78431564 104.10762989 0 101 C-2.28411096 93.78632706 -1.3886562 85.6789846 -1.171875 78.22265625 C-1.14948128 75.96826192 -1.13240549 73.71380903 -1.12042236 71.45933533 C-1.07469675 65.53776573 -0.95691341 59.6197531 -0.82397461 53.69958496 C-0.70100804 47.65372848 -0.64636775 41.60729457 -0.5859375 35.56054688 C-0.45740649 23.70547202 -0.25272359 11.85303225 0 0 Z " fill="#FDFDFD" transform="translate(545,938)"/>
<path d="M0 0 C1.48886719 0.50853516 1.48886719 0.50853516 3.0078125 1.02734375 C16.13677228 6.05355315 28.3796375 13.87184058 40.31762695 21.21972656 C42.87007221 22.7817615 45.14781096 24.04927032 48 25 C48 25.66 48 26.32 48 27 C48.83724609 27.16822266 48.83724609 27.16822266 49.69140625 27.33984375 C56.66443878 29.33382429 63.07900333 34.01368366 69.1875 37.8125 C76.65593153 42.45599289 84.31574383 46.72648152 92 51 C101.09718379 56.07129072 110.13442231 61.22608789 119.09912109 66.52856445 C124.02170473 69.43694378 128.98014753 72.26189865 134 75 C134 75.66 134 76.32 134 77 C133.18660156 77.46148438 132.37320312 77.92296875 131.53515625 78.3984375 C124.32619362 82.50162658 117.15287118 86.65930989 110.00830078 90.87353516 C103.82853682 94.51710329 97.6349519 98.13660936 91.4375 101.75 C90.43066162 102.33740967 89.42382324 102.92481934 88.38647461 103.5300293 C83.09978184 106.61348084 77.80996546 109.69141565 72.515625 112.76171875 C71.45545166 113.37756836 70.39527832 113.99341797 69.30297852 114.62792969 C67.29674229 115.79321633 65.28949567 116.95676601 63.28100586 118.11816406 C57.59652532 121.42250686 52.0193088 124.85516236 46.5012207 128.4309082 C43.18484097 130.51137405 39.75823861 132.34391866 36.30859375 134.19140625 C31.85556658 136.62558757 27.45806212 139.15134359 23.0625 141.6875 C22.23298828 142.16348633 21.40347656 142.63947266 20.54882812 143.12988281 C19.76056641 143.58588867 18.97230469 144.04189453 18.16015625 144.51171875 C17.45511963 144.91865967 16.75008301 145.32560059 16.02368164 145.74487305 C13.94280899 146.99349976 13.94280899 146.99349976 11.88842773 148.58911133 C-1.48646673 158.58180882 -24.4535336 159.57460424 -40.44482422 157.71582031 C-56.00714103 155.37943707 -68.74088612 149.30839114 -82 141 C-84.47594289 139.59851304 -84.47594289 139.59851304 -86.953125 138.19921875 C-90.95862808 135.85248317 -94.88072883 133.3639139 -98.81640625 130.90234375 C-101.94612361 128.97790529 -101.94612361 128.97790529 -105.12109375 127.44140625 C-108.52784616 125.73571882 -111.5353119 123.67108737 -114.65625 121.5 C-117.00344411 119.93747961 -117.00344411 119.93747961 -119.67578125 118.67578125 C-124.1603056 116.41507509 -128.3992239 113.79716151 -132.6875 111.1875 C-138.85652221 107.45571165 -145.03880169 103.82272568 -151.40625 100.4375 C-155.75183859 98.02910151 -159.9441214 95.37282304 -164.15234375 92.734375 C-166.40256794 91.36386809 -168.62079501 90.12367272 -171 89 C-171 88.34 -171 87.68 -171 87 C-171.73347656 86.89429688 -172.46695313 86.78859375 -173.22265625 86.6796875 C-176.21454218 85.94749601 -177.94782277 84.90904678 -180.4375 83.125 C-183.86866229 80.7381045 -187.20922548 78.74958824 -191 77 C-191 76.34 -191 75.68 -191 75 C-189.05859375 73.6328125 -189.05859375 73.6328125 -186.4375 72.125 C-185.59058594 71.63257813 -184.74367188 71.14015625 -183.87109375 70.6328125 C-182.92363281 70.09398437 -181.97617187 69.55515625 -181 69 C-179.87722656 68.35804688 -178.75445313 67.71609375 -177.59765625 67.0546875 C-176.39845705 66.36975744 -175.19923817 65.68486183 -174 65 C-172.83331337 64.33336827 -171.66664656 63.66670184 -170.5 63 C-168.16666667 61.66666667 -165.83333333 60.33333333 -163.5 59 C-162.92668945 58.67209473 -162.35337891 58.34418945 -161.76269531 58.00634766 C-160.55474327 57.31671077 -159.34570177 56.62897966 -158.13574219 55.94287109 C-155.12836182 54.23474932 -152.15410975 52.50334622 -149.25 50.625 C-145.28533958 48.12620062 -141.19951805 45.90055993 -137.07421875 43.6796875 C-132.42603547 41.14001938 -127.8471704 38.48291379 -123.26171875 35.83203125 C-121.15165265 34.6468564 -119.01265589 33.51121579 -116.84375 32.4375 C-114.3277275 31.16566445 -112.11442457 29.80374491 -109.8125 28.1875 C-103.83328408 24.12728919 -97.51537919 20.68445253 -91 17.5625 C-88.23068182 16.12014678 -85.73008291 14.52860803 -83.125 12.8125 C-70.93955614 5.02964547 -59.19190432 -0.13572741 -45 -3 C-44.21109375 -3.1743457 -43.4221875 -3.34869141 -42.609375 -3.52832031 C-28.6089874 -6.059079 -13.37347202 -4.59428801 0 0 Z " fill="#FDFDFD" transform="translate(736,596)"/>
<path d="M0 0 C4.42504534 -0.0251577 8.85005022 -0.04307066 13.27514648 -0.05493164 C14.77320076 -0.05988838 16.27125039 -0.06665574 17.76928711 -0.07543945 C27.89676176 -0.13323303 37.90263673 0.18049582 48 1 C48 1.66 48 2.32 48 3 C48.99 3.33 49.98 3.66 51 4 C49.52076554 3.85485591 48.04161704 3.70883578 46.5625 3.5625 C45.73878906 3.48128906 44.91507813 3.40007813 44.06640625 3.31640625 C41.76954019 3.07940478 39.47695613 2.80025654 37.1875 2.5 C29.96946224 1.69330915 22.6924118 1.63370856 15.4375 1.4375 C13.93683922 1.39421638 12.43618803 1.3505993 10.93554688 1.30664062 C7.29046701 1.20058203 3.64527818 1.09903743 0 1 C0 0.67 0 0.34 0 0 Z " fill="#ECE4DB" transform="translate(1068,541)"/>
<path d="M0 0 C-12.29744384 8.53989156 -12.29744384 8.53989156 -17 10 C-19.23046875 9.59765625 -19.23046875 9.59765625 -21 9 C-20.443125 8.69707031 -19.88625 8.39414062 -19.3125 8.08203125 C-14.65429601 5.52474021 -10.17917982 2.86969824 -5.82421875 -0.1796875 C-3.50058304 -1.22457722 -2.35092076 -0.84072663 0 0 Z " fill="#413629" transform="translate(964,582)"/>
<path d="M0 0 C0 0.66 0 1.32 0 2 C-0.969375 2.433125 -1.93875 2.86625 -2.9375 3.3125 C-6.27731765 4.7014861 -6.27731765 4.7014861 -7 8 C-7.66 8 -8.32 8 -9 8 C-9.33 8.99 -9.66 9.98 -10 11 C-12.1385485 8.8614515 -12.42655063 7.86724686 -13 5 C-11.39967863 4.15930585 -9.79458829 3.32768495 -8.1875 2.5 C-6.84751953 1.80390625 -6.84751953 1.80390625 -5.48046875 1.09375 C-3 0 -3 0 0 0 Z " fill="#332B24" transform="translate(254,557)"/>
<path d="M0 0 C1.08130697 3.35792454 0.92420653 5.94571296 0.44140625 9.421875 C0.30283203 10.44667969 0.16425781 11.47148438 0.02148438 12.52734375 C-0.12998047 13.59082031 -0.28144531 14.65429688 -0.4375 15.75 C-0.58509766 16.82894531 -0.73269531 17.90789063 -0.88476562 19.01953125 C-1.24979205 21.68069166 -1.62177419 24.34068894 -2 27 C-2.33 27 -2.66 27 -3 27 C-4.89174678 17.29451653 -2.70959689 9.26844945 0 0 Z " fill="#E4DDCD" transform="translate(125,707)"/>
<path d="M0 0 C1.32 0.33 2.64 0.66 4 1 C1.58384989 2.20807505 -0.83247732 3.41576639 -3.25 4.62109375 C-4.96259916 5.479826 -6.67163114 6.34575748 -8.375 7.22265625 C-13.79032258 10 -13.79032258 10 -16 10 C-16 9.34 -16 8.68 -16 8 C-15.01 8 -14.02 8 -13 8 C-13 7.34 -13 6.68 -13 6 C-8.38987758 3.04952165 -5.63470383 1.4502728 0 2 C0 1.34 0 0.68 0 0 Z " fill="#E2DBCD" transform="translate(999,558)"/>
<path d="M0 0 C3.80006881 1.19217845 7.48464095 2.53162486 11.1875 4 C11.1875 4.33 11.1875 4.66 11.1875 5 C9.2075 5.33 7.2275 5.66 5.1875 6 C4.8575 5.01 4.5275 4.02 4.1875 3 C1.77104218 2.83312552 1.77104218 2.83312552 -0.8125 3 C-1.4725 3.66 -2.1325 4.32 -2.8125 5 C-5.4375 5.125 -5.4375 5.125 -7.8125 5 C-3.66615854 0 -3.66615854 0 0 0 Z " fill="#D2C9BC" transform="translate(951.8125,510)"/>
<path d="M0 0 C2.64 0.66 5.28 1.32 8 2 C8 2.66 8 3.32 8 4 C11.63 4.33 15.26 4.66 19 5 C18.67 5.66 18.34 6.32 18 7 C16.54176788 7.0270043 15.08339325 7.04639787 13.625 7.0625 C12.81289063 7.07410156 12.00078125 7.08570313 11.1640625 7.09765625 C9 7 9 7 7 6 C7 5.34 7 4.68 7 4 C6.030625 3.71125 5.06125 3.4225 4.0625 3.125 C1 2 1 2 0 0 Z " fill="#DBD4C3" transform="translate(498,606)"/>
<path d="M0 0 C6.15234375 -0.09765625 6.15234375 -0.09765625 8 0 C8.33 0.33 8.66 0.66 9 1 C11.25655998 1.20228127 13.51043866 1.31889694 15.7734375 1.42578125 C18.68944638 2.17780459 19.45054027 3.49587314 21 6 C19.35451172 5.58427734 19.35451172 5.58427734 17.67578125 5.16015625 C16.22137007 4.79420763 14.7669421 4.42832573 13.3125 4.0625 C12.2306543 3.78889648 12.2306543 3.78889648 11.12695312 3.50976562 C7.43172752 2.58174093 3.74654531 1.70201539 0 1 C0 0.67 0 0.34 0 0 Z " fill="#D7D1BD" transform="translate(373,546)"/>
<path d="M0 0 C0.66 0.33 1.32 0.66 2 1 C-0.5082581 3.59783875 -2.9572319 6.03692381 -6 8 C-6.99 8 -7.98 8 -9 8 C-10.67099977 8.31088368 -12.33871537 8.64080332 -14 9 C-12.54692845 6.09385689 -10.40708052 5.44301921 -7.5625 3.9375 C-6.57378906 3.41027344 -5.58507813 2.88304687 -4.56640625 2.33984375 C-3.05026294 1.54831079 -1.52976207 0.76488103 0 0 Z " fill="#4B4744" transform="translate(1083,915)"/>
<path d="M0 0 C0.99 0.66 1.98 1.32 3 2 C2.34 2 1.68 2 1 2 C0.90847656 2.60328125 0.81695312 3.2065625 0.72265625 3.828125 C-0.17720492 6.53257263 -1.20702019 7.2082314 -3.5625 8.75 C-4.20316406 9.17796875 -4.84382812 9.6059375 -5.50390625 10.046875 C-6.24447266 10.51867187 -6.24447266 10.51867187 -7 11 C-7.66 10.67 -8.32 10.34 -9 10 C-6.1310659 6.49352499 -3.2682346 3.14718888 0 0 Z " fill="#41392C" transform="translate(177,609)"/>
<path d="M0 0 C8.03141361 -0.30890052 8.03141361 -0.30890052 11 2 C12.25 4.625 12.25 4.625 13 7 C8.50202887 5.31326082 4.27113698 3.18326108 0 1 C0 0.67 0 0.34 0 0 Z " fill="#DDD5C6" transform="translate(420,562)"/>
<path d="M0 0 C0.61875 0.309375 1.2375 0.61875 1.875 0.9375 C1.875 1.2675 1.875 1.5975 1.875 1.9375 C-4.47719042 1.38868943 -10.80373638 0.77238387 -17.125 -0.0625 C-11.72793963 -3.30322909 -5.73024159 -1.94828214 0 0 Z " fill="#E0D9CB" transform="translate(364.125,543.0625)"/>
<path d="M0 0 C0.33 0.66 0.66 1.32 1 2 C-0.97764782 6.06516496 -3.7373124 8.91367389 -7 12 C-7.66 11.67 -8.32 11.34 -9 11 C-8.67 10.34 -8.34 9.68 -8 9 C-7.34 9 -6.68 9 -6 9 C-5.9071875 8.1646875 -5.9071875 8.1646875 -5.8125 7.3125 C-4.66626128 4.05012827 -2.50609803 2.31332126 0 0 Z " fill="#453A2C" transform="translate(414,436)"/>
<path d="M0 0 C1.98 0.99 1.98 0.99 4 2 C4 3.32 4 4.64 4 6 C4.66 6 5.32 6 6 6 C6 8.64 6 11.28 6 14 C3.74402173 11.74402173 3.03425808 9.95396133 1.875 7 C1.52179688 6.113125 1.16859375 5.22625 0.8046875 4.3125 C0 2 0 2 0 0 Z " fill="#DFD9CA" transform="translate(1277,671)"/>
<path d="M0 0 C0.33 0.99 0.66 1.98 1 3 C-3.571279 2.45144652 -7.67435795 1.58255197 -12 0 C-12 -0.33 -12 -0.66 -12 -1 C-7.35656242 -2.10558038 -4.36228979 -2.028972 0 0 Z " fill="#D9D0C2" transform="translate(1140,547)"/>
<path d="M0 0 C4.02992782 0.55312735 8.02022924 1.1558062 12 2 C12 2.33 12 2.66 12 3 C8.17679443 4.42258812 5.08718695 5.24042276 1 5 C1.33 4.01 1.66 3.02 2 2 C1.34 1.34 0.68 0.68 0 0 Z " fill="#3E362B" transform="translate(366,545)"/>
<path d="M0 0 C5.28 0 10.56 0 16 0 C16 0.66 16 1.32 16 2 C16.99 2.33 17.98 2.66 19 3 C12.66118686 2.37802877 6.32905858 1.71457113 0 1 C0 0.67 0 0.34 0 0 Z " fill="#D9D2C0" transform="translate(1100,542)"/>
<path d="M0 0 C0.66 0 1.32 0 2 0 C2.0825 0.61875 2.165 1.2375 2.25 1.875 C2.4975 2.57625 2.745 3.2775 3 4 C3.66 4.268125 4.32 4.53625 5 4.8125 C7 6 7 6 7.609375 8.3828125 C7.65578125 9.28773438 7.7021875 10.19265625 7.75 11.125 C7.80671875 12.03507812 7.8634375 12.94515625 7.921875 13.8828125 C7.94765625 14.58148438 7.9734375 15.28015625 8 16 C5.95233824 13.95233824 5.47617017 12.91358084 4.5625 10.25 C3.28780298 6.68605119 1.76175813 3.35572978 0 0 Z " fill="#CEC5B5" transform="translate(1007,443)"/>
<path d="M0 0 C0.66 0.33 1.32 0.66 2 1 C-1.82180842 5.4008703 -4.47371099 6.80805531 -10 8 C-10 7.34 -10 6.68 -10 6 C-9.36191406 5.65066406 -8.72382812 5.30132813 -8.06640625 4.94140625 C-7.24011719 4.48636719 -6.41382813 4.03132812 -5.5625 3.5625 C-4.73878906 3.11003906 -3.91507813 2.65757812 -3.06640625 2.19140625 C-1.07691202 1.16337603 -1.07691202 1.16337603 0 0 Z " fill="#D1C9B9" transform="translate(859,562)"/>
<path d="M0 0 C0 0.66 0 1.32 0 2 C0.99 1.67 1.98 1.34 3 1 C3 2.65 3 4.3 3 6 C-0.37503669 4.8141763 -2.64722731 3.72426311 -5 1 C-3 0 -3 0 0 0 Z " fill="#45403D" transform="translate(1159,625)"/>
<path d="M0 0 C3.3 1.65 6.6 3.3 10 5 C10 5.66 10 6.32 10 7 C8.68 7 7.36 7 6 7 C5.34 6.34 4.68 5.68 4 5 C2.68252676 4.30251417 1.35085807 3.63040043 0 3 C0 2.01 0 1.02 0 0 Z " fill="#DFD8CA" transform="translate(542,555)"/>
<path d="M0 0 C2.9375 0.8125 2.9375 0.8125 6 2 C6.33 2.99 6.66 3.98 7 5 C9.00016466 6.20882096 9.00016466 6.20882096 11 7 C9.02 7.33 7.04 7.66 5 8 C4.9175 7.21625 4.835 6.4325 4.75 5.625 C4.27193661 2.85250896 4.27193661 2.85250896 1.9375 1.6875 C1.298125 1.460625 0.65875 1.23375 0 1 C0 0.67 0 0.34 0 0 Z " fill="#5C5247" transform="translate(873,597)"/>
<path d="M0 0 C3.7910119 1.44950455 7.3874638 3.15172566 11 5 C10.01 5.66 9.02 6.32 8 7 C7.34 6.67 6.68 6.34 6 6 C6 5.34 6 4.68 6 4 C4.35 3.67 2.7 3.34 1 3 C0.67 2.01 0.34 1.02 0 0 Z " fill="#E4DCCB" transform="translate(480,520)"/>
<path d="M0 0 C0.99 0.33 1.98 0.66 3 1 C3 5.29 3 9.58 3 14 C2.67 14 2.34 14 2 14 C1.66179834 12.4176994 1.32964061 10.83410625 1 9.25 C0.814375 8.36828125 0.62875 7.4865625 0.4375 6.578125 C0 4 0 4 0 0 Z " fill="#DBD5C3" transform="translate(1289,710)"/>
<path d="M0 0 C1 2 1 2 0.22265625 4.8203125 C-0.16019531 5.91085937 -0.54304687 7.00140625 -0.9375 8.125 C-1.31777344 9.22070312 -1.69804687 10.31640625 -2.08984375 11.4453125 C-2.39019531 12.28835938 -2.69054687 13.13140625 -3 14 C-4.0300801 10.90975969 -4.37377626 9.21447584 -4 6 C-2 2.6875 -2 2.6875 0 0 Z " fill="#D4CABD" transform="translate(134,678)"/>
<path d="M0 0 C0.515625 0.2475 1.03125 0.495 1.5625 0.75 C-0.4175 1.41 -2.3975 2.07 -4.4375 2.75 C-4.4375 3.41 -4.4375 4.07 -4.4375 4.75 C-6.0875 5.41 -7.7375 6.07 -9.4375 6.75 C-9.4375 5.76 -9.4375 4.77 -9.4375 3.75 C-3.0375 -0.31153846 -3.0375 -0.31153846 0 0 Z " fill="#DED8C9" transform="translate(221.4375,572.25)"/>
<path d="M0 0 C3.81684226 1.55500981 6.19195732 4.03595495 9 7 C8.01 7.495 8.01 7.495 7 8 C6.01 7.34 5.02 6.68 4 6 C4 5.34 4 4.68 4 4 C2.68 3.34 1.36 2.68 0 2 C0 1.34 0 0.68 0 0 Z " fill="#362F24" transform="translate(1216,590)"/>
<path d="M0 0 C0.33 0.66 0.66 1.32 1 2 C0.125 4 0.125 4 -1 6 C-1.33 6.66 -1.66 7.32 -2 8 C-3.66666667 8 -5.33333333 8 -7 8 C-7 7.34 -7 6.68 -7 6 C-5.46875 4.4921875 -5.46875 4.4921875 -3.5 2.875 C-2.8503125 2.33617187 -2.200625 1.79734375 -1.53125 1.2421875 C-1.0259375 0.83226562 -0.520625 0.42234375 0 0 Z " fill="#403629" transform="translate(199,588)"/>
<path d="M0 0 C0.66 0.33 1.32 0.66 2 1 C-3.30311615 6.74504249 -3.30311615 6.74504249 -7 7 C-7.66 6.67 -8.32 6.34 -9 6 C-2.25 2 -2.25 2 0 2 C0 1.34 0 0.68 0 0 Z " fill="#D1C8B8" transform="translate(885,547)"/>
<path d="M0 0 C0.99 0.33 1.98 0.66 3 1 C3 2.32 3 3.64 3 5 C4.65 4.67 6.3 4.34 8 4 C8 4.66 8 5.32 8 6 C2.375 6.25 2.375 6.25 -1 4 C-0.67 2.68 -0.34 1.36 0 0 Z " fill="#332A22" transform="translate(483,517)"/>
<path d="M0 0 C0.33 0.66 0.66 1.32 1 2 C-0.5224249 5.57769851 -2.02930459 8.45368965 -5 11 C-5.66 10.67 -6.32 10.34 -7 10 C-3.535 5.05 -3.535 5.05 0 0 Z " fill="#D4CABD" transform="translate(1011,490)"/>
<path d="M0 0 C0.99 0.495 0.99 0.495 2 1 C2 2.32 2 3.64 2 5 C2.66 5 3.32 5 4 5 C5.625 7 5.625 7 7 9 C6.67 9.66 6.34 10.32 6 11 C5.01 11 4.02 11 3 11 C3 9.68 3 8.36 3 7 C2.34 7 1.68 7 1 7 C0.67 4.69 0.34 2.38 0 0 Z " fill="#D0CABB" transform="translate(403,489)"/>
<path d="M0 0 C0.99 0.33 1.98 0.66 3 1 C3.33 3.31 3.66 5.62 4 8 C3.566875 7.525625 3.13375 7.05125 2.6875 6.5625 C0.97690387 4.76313043 0.97690387 4.76313043 -2 4 C-1.34 2.68 -0.68 1.36 0 0 Z " fill="#322B22" transform="translate(1284,698)"/>
<path d="M0 0 C2.475 0.99 2.475 0.99 5 2 C5.33 4.64 5.66 7.28 6 10 C3.61405803 8.80702902 3.16265153 7.85642735 1.875 5.5625 C1.52179688 4.94503906 1.16859375 4.32757812 0.8046875 3.69140625 C0 2 0 2 0 0 Z " fill="#E1D9CA" transform="translate(1266,648)"/>
<path d="M0 0 C2.97 0.495 2.97 0.495 6 1 C6 1.66 6 2.32 6 3 C7.32 3 8.64 3 10 3 C10.33 3.99 10.66 4.98 11 6 C6.95743617 4.77782954 3.50711041 3.37245704 0 1 C0 0.67 0 0.34 0 0 Z " fill="#D4CCBC" transform="translate(884,603)"/>
<path d="M0 0 C1.32 0.33 2.64 0.66 4 1 C3.34 1 2.68 1 2 1 C2 1.66 2 2.32 2 3 C-3.2734375 6.22265625 -3.2734375 6.22265625 -5 7 C-5.66 6.67 -6.32 6.34 -7 6 C-6.34 5.01 -5.68 4.02 -5 3 C-3.68 3 -2.36 3 -1 3 C-0.67 2.01 -0.34 1.02 0 0 Z " fill="#CBC5B3" transform="translate(934,594)"/>
<path d="M0 0 C0.66 0.33 1.32 0.66 2 1 C0.71034824 2.37562854 -0.62689293 3.70766393 -2 5 C-2.66 5 -3.32 5 -4 5 C-4.33 5.66 -4.66 6.32 -5 7 C-6.32 6.34 -7.64 5.68 -9 5 C-7.54735962 4.1361871 -6.0876837 3.28419546 -4.625 2.4375 C-3.40683594 1.72400391 -3.40683594 1.72400391 -2.1640625 0.99609375 C-1.44992187 0.66738281 -0.73578125 0.33867188 0 0 Z " fill="#3F3B38" transform="translate(796,542)"/>
<path d="M0 0 C1.32 0 2.64 0 4 0 C4 0.66 4 1.32 4 2 C4.99 2.33 5.98 2.66 7 3 C6.67 4.32 6.34 5.64 6 7 C4.02 4.69 2.04 2.38 0 0 Z " fill="#E9E2D2" transform="translate(1225,596)"/>
<path d="M0 0 C0 0.66 0 1.32 0 2 C-0.94875 2.45375 -1.8975 2.9075 -2.875 3.375 C-6.00313679 4.80238254 -6.00313679 4.80238254 -8 7 C-8 5.68 -8 4.36 -8 3 C-5.12645755 0.82542733 -3.63563409 0 0 0 Z " fill="#3C3427" transform="translate(254,557)"/>
<path d="M0 0 C0.66 0.33 1.32 0.66 2 1 C0.6875 3 0.6875 3 -1 5 C-1.99 5 -2.98 5 -4 5 C-4 5.66 -4 6.32 -4 7 C-4.99 6.67 -5.98 6.34 -7 6 C-4.74259377 3.66475218 -2.7194239 1.81294927 0 0 Z " fill="#E2DACA" transform="translate(998,505)"/>
<path d="M0 0 C1.31223496 3.93670488 0.24296256 6.12488144 -1 10 C-1.99 9.67 -2.98 9.34 -4 9 C-2.94124926 5.59687262 -1.99097846 2.98646769 0 0 Z " fill="#463B30" transform="translate(157,634)"/>
<path d="M0 0 C-0.33 0.99 -0.66 1.98 -1 3 C-2.65 3.33 -4.3 3.66 -6 4 C-6.66 3.01 -7.32 2.02 -8 1 C-3.375 -1.125 -3.375 -1.125 0 0 Z " fill="#322A23" transform="translate(208,586)"/>
<path d="M0 0 C0.33 0.66 0.66 1.32 1 2 C-2.3 2 -5.6 2 -9 2 C-9.33 1.34 -9.66 0.68 -10 0 C-6.64338305 -1.67830848 -3.63864406 -0.6353188 0 0 Z " fill="#362B23" transform="translate(402,554)"/>
<path d="M0 0 C-2.35968744 2.09749995 -3.54616994 2.96905704 -6.75 3.1875 C-7.86375 3.0946875 -7.86375 3.0946875 -9 3 C-8.67 2.01 -8.34 1.02 -8 0 C-5.13822943 -1.43088528 -3.06624227 -0.59991697 0 0 Z " fill="#E6E0D1" transform="translate(260,554)"/>
<path d="M0 0 C2.97 0.495 2.97 0.495 6 1 C5.34 2.65 4.68 4.3 4 6 C1.2160817 4.60804085 1.02101003 2.84424221 0 0 Z " fill="#281C14" transform="translate(1115,545)"/>
<path d="M0 0 C-6.4 3.07692308 -6.4 3.07692308 -9.4375 2.6875 C-9.953125 2.460625 -10.46875 2.23375 -11 2 C-3.57142857 -1.57142857 -3.57142857 -1.57142857 0 0 Z " fill="#494441" transform="translate(746,747)"/>
<path d="M0 0 C0.99 0 1.98 0 3 0 C1.66666667 3.33333333 0.33333333 6.66666667 -1 10 C-2.0625 8.125 -2.0625 8.125 -3 6 C-2.67 5.34 -2.34 4.68 -2 4 C-1.34 4 -0.68 4 0 4 C0 2.68 0 1.36 0 0 Z " fill="#D7D1C1" transform="translate(142,656)"/>
<path d="M0 0 C1.32 0.33 2.64 0.66 4 1 C3.360625 1.268125 2.72125 1.53625 2.0625 1.8125 C-0.33131686 2.88667752 -0.33131686 2.88667752 -1 6 C-1.99 5.67 -2.98 5.34 -4 5 C-2.68 3.35 -1.36 1.7 0 0 Z " fill="#DED7CA" transform="translate(192,591)"/>
<path d="M0 0 C-1 3 -1 3 -4 5 C-6.1875 4.625 -6.1875 4.625 -8 4 C-2.25 0 -2.25 0 0 0 Z " fill="#453B2E" transform="translate(567,583)"/>
<path d="M0 0 C0.99 0.66 1.98 1.32 3 2 C0.36 3.65 -2.28 5.3 -5 7 C-5 6.01 -5 5.02 -5 4 C-2.5 1.8125 -2.5 1.8125 0 0 Z " fill="#E9E4D5" transform="translate(207,579)"/>
<path d="M0 0 C0.556875 0.226875 1.11375 0.45375 1.6875 0.6875 C-3.0625 3.6875 -3.0625 3.6875 -5.3125 3.6875 C-5.6425 4.3475 -5.9725 5.0075 -6.3125 5.6875 C-6.6425 4.6975 -6.9725 3.7075 -7.3125 2.6875 C-2.88173077 -0.38942308 -2.88173077 -0.38942308 0 0 Z " fill="#E6DFD2" transform="translate(421.3125,430.3125)"/>
<path d="M0 0 C0 0.99 0 1.98 0 3 C-2.5 4.6875 -2.5 4.6875 -5 6 C-5.66 5.34 -6.32 4.68 -7 4 C-4.69 2.68 -2.38 1.36 0 0 Z " fill="#484442" transform="translate(865,1041)"/>
<path d="M0 0 C0.66 0.33 1.32 0.66 2 1 C-0.97 3.475 -0.97 3.475 -4 6 C-4.99 5.34 -5.98 4.68 -7 4 C-1.7265625 0.77734375 -1.7265625 0.77734375 0 0 Z " fill="#4C4744" transform="translate(824,886)"/>
<path d="M0 0 C0 3.5747073 -0.55352838 4.46916729 -3 7 C-5.6875 7.75 -5.6875 7.75 -8 8 C-5.33333333 5.33333333 -2.66666667 2.66666667 0 0 Z " fill="#4F4A46" transform="translate(1180,855)"/>
<path d="M0 0 C0.66 0.33 1.32 0.66 2 1 C2 2.32 2 3.64 2 5 C2.33 5.66 2.66 6.32 3 7 C1.02 6.34 -0.96 5.68 -3 5 C-3 4.01 -3 3.02 -3 2 C-2.01 1.34 -1.02 0.68 0 0 Z " fill="#CAC0B3" transform="translate(841,573)"/>
<path d="M0 0 C-0.33 0.99 -0.66 1.98 -1 3 C-3.31 3.33 -5.62 3.66 -8 4 C-5.29881977 1.17603885 -4.05589853 0 0 0 Z " fill="#564B3E" transform="translate(1010,556)"/>
<path d="M0 0 C0.66 0.33 1.32 0.66 2 1 C1.34 2.32 0.68 3.64 0 5 C-1.65 5 -3.3 5 -5 5 C-5 4.34 -5 3.68 -5 3 C-2.625 1.3125 -2.625 1.3125 0 0 Z " fill="#3D3328" transform="translate(421,431)"/>
<path d="M0 0 C-0.75 1.9375 -0.75 1.9375 -2 4 C-4 4.8125 -4 4.8125 -6 5 C-6.66 4.67 -7.32 4.34 -8 4 C-2.25 0 -2.25 0 0 0 Z " fill="#D3D1CF" transform="translate(874,1113)"/>
<path d="M0 0 C0.66 0 1.32 0 2 0 C0.375 6.75 0.375 6.75 -3 9 C-2.44271087 5.65626525 -1.64826111 2.96687001 0 0 Z " fill="#EAE1D1" transform="translate(148,645)"/>
<path d="M0 0 C1.65 0.33 3.3 0.66 5 1 C2.82575883 3.50037734 1.26954202 4.43628586 -2 5 C-1.34 3.35 -0.68 1.7 0 0 Z " fill="#3B3633" transform="translate(597,637)"/>
<path d="M0 0 C0.763125 0.556875 1.52625 1.11375 2.3125 1.6875 C2.3125 2.3475 2.3125 3.0075 2.3125 3.6875 C-3.4375 1.9375 -3.4375 1.9375 -5.6875 -0.3125 C-2.6875 -1.3125 -2.6875 -1.3125 0 0 Z " fill="#4A4542" transform="translate(758.6875,604.3125)"/>
<path d="M0 0 C0.556875 0.226875 1.11375 0.45375 1.6875 0.6875 C-2.74326923 3.76442308 -2.74326923 3.76442308 -5.625 3.375 C-6.4603125 3.0346875 -6.4603125 3.0346875 -7.3125 2.6875 C-2.88173077 -0.38942308 -2.88173077 -0.38942308 0 0 Z " fill="#483E2F" transform="translate(962.3125,581.3125)"/>
<path d="M0 0 C-3.51187196 2.40814077 -5.72656908 3.36629408 -10 3 C-9 1 -9 1 -5.5625 -0.1875 C-2 -1 -2 -1 0 0 Z " fill="#E9E5D9" transform="translate(853,570)"/>
<path d="M0 0 C-0.33 1.32 -0.66 2.64 -1 4 C-2.98 4 -4.96 4 -7 4 C-3.17391304 0 -3.17391304 0 0 0 Z " fill="#DCD4C4" transform="translate(876,554)"/>
<path d="M0 0 C3.0831351 1.19899698 6.06279492 2.47700477 9 4 C5.98968256 4.93423645 5.13349732 5.04449911 2 4 C0.8125 1.9375 0.8125 1.9375 0 0 Z " fill="#D6CBBE" transform="translate(522,544)"/>
<path d="M0 0 C-0.66 1.65 -1.32 3.3 -2 5 C-3.32 4.34 -4.64 3.68 -6 3 C-2.25 0 -2.25 0 0 0 Z " fill="#D8D3C6" transform="translate(917,530)"/>
<path d="M0 0 C3.3 0.99 6.6 1.98 10 3 C10 3.33 10 3.66 10 4 C8.02 4.33 6.04 4.66 4 5 C3.67 4.01 3.34 3.02 3 2 C2.01 1.67 1.02 1.34 0 1 C0 0.67 0 0.34 0 0 Z " fill="#DFD5C7" transform="translate(953,511)"/>
</svg>
