<svg width="16" height="16" viewBox="0 0 16 16" fill="none" xmlns="http://www.w3.org/2000/svg">
<path d="M6.09091 1H2.27273C1.93518 1 1.61146 1.13409 1.37277 1.37277C1.13409 1.61146 1 1.93518 1 2.27273V6.09091C1 6.42846 1.13409 6.75218 1.37277 6.99086C1.61146 7.22955 1.93518 7.36364 2.27273 7.36364H6.09091C6.42846 7.36364 6.75218 7.22955 6.99086 6.99086C7.22955 6.75218 7.36364 6.42846 7.36364 6.09091V2.27273C7.36364 1.93518 7.22955 1.61146 6.99086 1.37277C6.75218 1.13409 6.42846 1 6.09091 1ZM6.09091 6.09091H2.27273V2.27273H6.09091V6.09091ZM6.09091 8.63636H2.27273C1.93518 8.63636 1.61146 8.77045 1.37277 9.00914C1.13409 9.24782 1 9.57154 1 9.90909V13.7273C1 14.0648 1.13409 14.3885 1.37277 14.6272C1.61146 14.8659 1.93518 15 2.27273 15H6.09091C6.42846 15 6.75218 14.8659 6.99086 14.6272C7.22955 14.3885 7.36364 14.0648 7.36364 13.7273V9.90909C7.36364 9.57154 7.22955 9.24782 6.99086 9.00914C6.75218 8.77045 6.42846 8.63636 6.09091 8.63636ZM6.09091 13.7273H2.27273V9.90909H6.09091V13.7273ZM13.7273 1H9.90909C9.57154 1 9.24782 1.13409 9.00914 1.37277C8.77045 1.61146 8.63636 1.93518 8.63636 2.27273V6.09091C8.63636 6.42846 8.77045 6.75218 9.00914 6.99086C9.24782 7.22955 9.57154 7.36364 9.90909 7.36364H13.7273C14.0648 7.36364 14.3885 7.22955 14.6272 6.99086C14.8659 6.75218 15 6.42846 15 6.09091V2.27273C15 1.93518 14.8659 1.61146 14.6272 1.37277C14.3885 1.13409 14.0648 1 13.7273 1ZM13.7273 6.09091H9.90909V2.27273H13.7273V6.09091ZM8.63636 11.8182V9.27273C8.63636 9.10395 8.70341 8.94209 8.82275 8.82275C8.94209 8.70341 9.10395 8.63636 9.27273 8.63636C9.4415 8.63636 9.60336 8.70341 9.7227 8.82275C9.84205 8.94209 9.90909 9.10395 9.90909 9.27273V11.8182C9.90909 11.987 9.84205 12.1488 9.7227 12.2682C9.60336 12.3875 9.4415 12.4545 9.27273 12.4545C9.10395 12.4545 8.94209 12.3875 8.82275 12.2682C8.70341 12.1488 8.63636 11.987 8.63636 11.8182ZM15 10.5455C15 10.7142 14.933 10.8761 14.8136 10.9954C14.6943 11.1148 14.5324 11.1818 14.3636 11.1818H12.4545V14.3636C12.4545 14.5324 12.3875 14.6943 12.2682 14.8136C12.1488 14.933 11.987 15 11.8182 15H9.27273C9.10395 15 8.94209 14.933 8.82275 14.8136C8.70341 14.6943 8.63636 14.5324 8.63636 14.3636C8.63636 14.1949 8.70341 14.033 8.82275 13.9137C8.94209 13.7943 9.10395 13.7273 9.27273 13.7273H11.1818V9.27273C11.1818 9.10395 11.2489 8.94209 11.3682 8.82275C11.4875 8.70341 11.6494 8.63636 11.8182 8.63636C11.987 8.63636 12.1488 8.70341 12.2682 8.82275C12.3875 8.94209 12.4545 9.10395 12.4545 9.27273V9.90909H14.3636C14.5324 9.90909 14.6943 9.97614 14.8136 10.0955C14.933 10.2148 15 10.3767 15 10.5455ZM15 13.0909V14.3636C15 14.5324 14.933 14.6943 14.8136 14.8136C14.6943 14.933 14.5324 15 14.3636 15C14.1949 15 14.033 14.933 13.9137 14.8136C13.7943 14.6943 13.7273 14.5324 13.7273 14.3636V13.0909C13.7273 12.9221 13.7943 12.7603 13.9137 12.6409C14.033 12.5216 14.1949 12.4545 14.3636 12.4545C14.5324 12.4545 14.6943 12.5216 14.8136 12.6409C14.933 12.7603 15 12.9221 15 13.0909Z" fill="black"/>
</svg>
