<svg width="80" height="80" viewBox="0 0 80 80" fill="none" xmlns="http://www.w3.org/2000/svg">
<circle cx="40" cy="40" r="39.5" fill="#F8F9FB" stroke="#F1F2F6"/>
<path d="M52.8337 56.5V52.8333C52.8337 50.8884 52.061 49.0232 50.6858 47.6479C49.3105 46.2726 47.4452 45.5 45.5003 45.5H34.5003C32.5554 45.5 30.6901 46.2726 29.3149 47.6479C27.9396 49.0232 27.167 50.8884 27.167 52.8333V56.5" stroke="#CCCCCC" stroke-width="1.33333" stroke-linecap="round" stroke-linejoin="round"/>
<path d="M40.0003 38.1667C44.0504 38.1667 47.3337 34.8834 47.3337 30.8333C47.3337 26.7832 44.0504 23.5 40.0003 23.5C35.9502 23.5 32.667 26.7832 32.667 30.8333C32.667 34.8834 35.9502 38.1667 40.0003 38.1667Z" stroke="#CCCCCC" stroke-width="1.33333" stroke-linecap="round" stroke-linejoin="round"/>
</svg>
